<svg width="118" height="118" viewBox="0 0 118 118" fill="none" xmlns="http://www.w3.org/2000/svg">
<g filter="url(#filter0_d_1_39)">
<rect x="2" width="110" height="110" rx="10" fill="white"/>
<path fill-rule="evenodd" clip-rule="evenodd" d="M20.0769 94.6651C36.1161 92.1162 48.5044 75.3291 48.5044 55C48.5044 34.6709 36.1161 17.8838 20.0769 15.3349C21.4673 15.114 22.8851 15 24.3247 15C42.3708 15 57 32.9086 57 55C57 77.0914 42.3708 95 24.3247 95C22.8851 95 21.4673 94.886 20.0769 94.6651Z" fill="#5277F7"/>
<path fill-rule="evenodd" clip-rule="evenodd" d="M93.9231 15.3349C77.8839 17.8838 65.4956 34.6709 65.4956 55C65.4956 75.3291 77.8839 92.1162 93.9231 94.6651C92.5327 94.886 91.1149 95 89.6753 95C71.6292 95 57 77.0914 57 55C57 32.9086 71.6292 15 89.6753 15C91.1149 15 92.5327 15.114 93.9231 15.3349Z" fill="#5277F7"/>
<path fill-rule="evenodd" clip-rule="evenodd" d="M96.6651 91.9231C94.1162 75.8839 77.3291 63.4956 57 63.4956C36.6709 63.4956 19.8838 75.8839 17.3349 91.9231C17.114 90.5327 17 89.1149 17 87.6753C17 69.6292 34.9086 55 57 55C79.0914 55 97 69.6292 97 87.6753C97 89.1149 96.886 90.5327 96.6651 91.9231Z" fill="#5277F7"/>
<path fill-rule="evenodd" clip-rule="evenodd" d="M17.3349 18.0769C19.8838 34.1161 36.6709 46.5044 57 46.5044C77.3291 46.5044 94.1162 34.1161 96.6651 18.0769C96.886 19.4673 97 20.8851 97 22.3247C97 40.3708 79.0914 55 57 55C34.9086 55 17 40.3708 17 22.3247C17 20.8851 17.114 19.4673 17.3349 18.0769Z" fill="#5277F7"/>
</g>
<defs>
<filter id="filter0_d_1_39" x="0" y="0" width="118" height="118" filterUnits="userSpaceOnUse" color-interpolation-filters="sRGB">
<feFlood flood-opacity="0" result="BackgroundImageFix"/>
<feColorMatrix in="SourceAlpha" type="matrix" values="0 0 0 0 0 0 0 0 0 0 0 0 0 0 0 0 0 0 127 0" result="hardAlpha"/>
<feOffset dx="2" dy="4"/>
<feGaussianBlur stdDeviation="2"/>
<feComposite in2="hardAlpha" operator="out"/>
<feColorMatrix type="matrix" values="0 0 0 0 0 0 0 0 0 0 0 0 0 0 0 0 0 0 0.25 0"/>
<feBlend mode="darken" in2="BackgroundImageFix" result="effect1_dropShadow_1_39"/>
<feBlend mode="normal" in="SourceGraphic" in2="effect1_dropShadow_1_39" result="shape"/>
</filter>
</defs>
</svg>
