<svg width="870" height="653" viewBox="0 0 870 653" fill="none" xmlns="http://www.w3.org/2000/svg">
<rect width="870" height="652.5" fill="white"/>
<mask id="mask0_103_4135" style="mask-type:alpha" maskUnits="userSpaceOnUse" x="329" y="241" width="239" height="287">
<path d="M423.524 241.379L420.366 247.42C418.86 250.301 417.919 253.442 417.591 256.676L416.195 270.457L337.184 348.663C329.009 356.754 326.87 369.142 331.859 379.507L387.589 495.285C374.043 499.319 364.981 503.65 360.402 508.288C355.823 512.926 354.483 519.125 356.383 526.889L412.413 526.965L418.086 509.234L420.011 499.702C420.322 498.165 421.818 497.172 423.354 497.484C424.285 497.668 425.06 498.311 425.419 499.191L436.763 526.965H447.638L438.654 485.356C435.854 478.212 433.49 472.775 431.562 469.044C429.634 465.314 426.96 461.001 423.539 456.106L377.423 367.623L443.619 282.751L504.851 500.014C491.82 502.335 483.545 505.484 480.028 509.47C476.505 513.456 475.796 519.447 477.9 527.438H544.568L543.112 500.042C543.07 499.262 543.67 498.595 544.45 498.553C545.051 498.52 545.604 498.869 545.836 499.423L557.571 527.438H567.973C561.874 505.99 557.93 492.278 556.153 486.302C553.349 476.897 542.677 462.661 544.568 469.044C544.568 469.044 536.805 440.035 522.582 402.376C517.977 390.188 509.991 375.817 504.917 362.903C496.075 340.418 485.356 313.147 472.755 281.089C470.485 275.313 471.397 264.779 467.26 254.257C466.082 251.259 462.772 247.124 457.331 241.851L423.524 241.379Z" fill="white"/>
</mask>
<g mask="url(#mask0_103_4135)">
<path d="M423.524 241.379L420.366 247.42C418.86 250.301 417.919 253.442 417.591 256.676L416.195 270.457L337.184 348.663C329.009 356.754 326.87 369.142 331.859 379.507L387.589 495.285C374.043 499.319 364.981 503.65 360.402 508.288C355.823 512.926 354.483 519.125 356.383 526.889L412.413 526.965L418.086 509.234L420.011 499.702C420.322 498.165 421.818 497.172 423.354 497.484C424.285 497.668 425.06 498.311 425.419 499.191L436.763 526.965H447.638L438.654 485.356C435.854 478.212 433.49 472.775 431.562 469.044C429.634 465.314 426.96 461.001 423.539 456.106L377.423 367.623L443.619 282.751L504.851 500.014C491.82 502.335 483.545 505.484 480.028 509.47C476.505 513.456 475.796 519.447 477.9 527.438H544.568L543.112 500.042C543.07 499.262 543.67 498.595 544.45 498.553C545.051 498.52 545.604 498.869 545.836 499.423L557.571 527.438H567.973C561.874 505.99 557.93 492.278 556.153 486.302C553.349 476.897 542.677 462.661 544.568 469.044C544.568 469.044 536.805 440.035 522.582 402.376C517.977 390.188 509.991 375.817 504.917 362.903C496.075 340.418 485.356 313.147 472.755 281.089C470.485 275.313 471.397 264.779 467.26 254.257C466.082 251.259 462.772 247.124 457.331 241.851L423.524 241.379Z" fill="#FF567B"/>
<path fill-rule="evenodd" clip-rule="evenodd" d="M372.459 468.808L433.69 453.441L461.587 530.747H350.473L372.459 468.808Z" fill="#002D6F"/>
<path fill-rule="evenodd" clip-rule="evenodd" d="M488.775 462.661L549.296 468.335L581.685 543.986H470.57L488.775 462.661Z" fill="#002D6F"/>
</g>
<mask id="mask1_103_4135" style="mask-type:alpha" maskUnits="userSpaceOnUse" x="279" y="157" width="296" height="178">
<path d="M410.993 181.33L312.173 157.452L279.548 255.327L323.521 258.164L339.833 201.188L416.195 211.827L421.396 241.406H457.33L461.113 204.498L533.929 323.65L567.973 334.053L574.119 323.65L547.641 247.762L473.644 178.493C459.451 182.143 449.206 183.806 442.909 183.484C427.149 182.678 416.51 181.96 410.993 181.33Z" fill="white"/>
</mask>
<g mask="url(#mask1_103_4135)">
<path d="M410.993 181.33L312.173 157.452L279.548 255.327L323.521 258.164L339.833 201.188L416.195 211.827L421.396 241.406H457.33L461.113 204.498L533.929 323.65L567.973 334.053L574.119 323.65L547.641 247.762L473.644 178.493C459.451 182.143 449.206 183.806 442.909 183.484C427.149 182.678 416.51 181.96 410.993 181.33Z" fill="#FFE694"/>
<path d="M463.631 215.492C463.37 215.528 463.135 215.35 463.104 215.093C463.075 214.837 463.261 214.6 463.522 214.564L466.627 214.137C466.888 214.101 467.124 214.28 467.154 214.536C467.184 214.793 466.997 215.03 466.736 215.066L463.631 215.492ZM463.75 210.597C463.489 210.632 463.253 210.453 463.223 210.197C463.193 209.94 463.38 209.704 463.641 209.668L466.746 209.241C467.007 209.205 467.242 209.384 467.273 209.641C467.303 209.897 467.116 210.134 466.855 210.17L463.75 210.597ZM476.509 213.651C476.249 213.687 476.013 213.508 475.985 213.252C475.951 212.995 476.141 212.758 476.401 212.722L479.507 212.296C479.767 212.26 480.004 212.438 480.032 212.695C480.065 212.951 479.876 213.189 479.616 213.224L476.509 213.651ZM476.628 208.755C476.368 208.791 476.131 208.612 476.103 208.356C476.074 208.099 476.259 207.862 476.519 207.826L479.625 207.399C479.885 207.364 480.122 207.543 480.15 207.799C480.183 208.056 479.994 208.293 479.734 208.329L476.628 208.755ZM469.94 214.857C469.682 214.913 469.433 214.752 469.383 214.499C469.333 214.246 469.502 213.996 469.76 213.941L472.802 213.29C473.058 213.235 473.308 213.395 473.36 213.648C473.408 213.901 473.242 214.151 472.982 214.206L469.94 214.857ZM470.059 209.962C469.801 210.017 469.552 209.856 469.502 209.603C469.452 209.35 469.621 209.1 469.878 209.045L472.921 208.394C473.181 208.338 473.427 208.499 473.479 208.752C473.526 209.005 473.36 209.255 473.1 209.31L470.059 209.962ZM482.817 213.016C482.562 213.071 482.311 212.911 482.264 212.658C482.212 212.405 482.382 212.155 482.637 212.1L485.682 211.448C485.938 211.393 486.188 211.554 486.24 211.807C486.287 212.06 486.117 212.31 485.862 212.365L482.817 213.016ZM482.94 208.12C482.68 208.175 482.429 208.015 482.382 207.762C482.33 207.509 482.5 207.259 482.755 207.204L485.8 206.553C486.056 206.497 486.306 206.658 486.358 206.911C486.406 207.164 486.24 207.414 485.98 207.469L482.94 208.12ZM489.389 211.81C489.129 211.845 488.893 211.667 488.864 211.41C488.831 211.154 489.02 210.916 489.28 210.881L492.387 210.454C492.647 210.418 492.883 210.597 492.912 210.853C492.94 211.11 492.756 211.347 492.496 211.383L489.389 211.81ZM489.507 206.913C489.247 206.949 489.011 206.771 488.983 206.514C488.949 206.258 489.139 206.021 489.399 205.985L492.505 205.558C492.765 205.522 493.002 205.701 493.03 205.958C493.063 206.214 492.874 206.451 492.614 206.487L489.507 206.913ZM495.697 211.175C495.441 211.23 495.191 211.07 495.143 210.816C495.091 210.563 495.262 210.313 495.517 210.258L498.562 209.607C498.817 209.552 499.068 209.712 499.115 209.965C499.167 210.218 498.997 210.468 498.742 210.523L495.697 211.175ZM495.815 206.278C495.56 206.334 495.309 206.173 495.262 205.92C495.21 205.667 495.38 205.417 495.635 205.362L498.68 204.711C498.936 204.656 499.186 204.816 499.238 205.069C499.285 205.322 499.115 205.572 498.86 205.627L495.815 206.278ZM463.868 205.701C463.608 205.737 463.372 205.557 463.342 205.301C463.312 205.044 463.499 204.807 463.76 204.771L466.865 204.345C467.126 204.309 467.361 204.488 467.391 204.745C467.422 205.001 467.234 205.238 466.974 205.274L463.868 205.701ZM476.746 203.859C476.486 203.895 476.249 203.716 476.221 203.459C476.193 203.203 476.377 202.966 476.637 202.93L479.744 202.503C480.004 202.468 480.24 202.647 480.268 202.903C480.301 203.16 480.112 203.397 479.852 203.432L476.746 203.859ZM470.177 205.066C469.92 205.12 469.67 204.96 469.621 204.707C469.571 204.454 469.739 204.204 469.997 204.149L473.039 203.498C473.299 203.443 473.545 203.603 473.597 203.856C473.644 204.109 473.479 204.359 473.219 204.414L470.177 205.066ZM483.058 203.224C482.798 203.279 482.547 203.119 482.5 202.866C482.448 202.613 482.618 202.363 482.878 202.308L485.919 201.657C486.179 201.601 486.425 201.761 486.477 202.015C486.524 202.268 486.358 202.518 486.098 202.573L483.058 203.224ZM489.626 202.018C489.366 202.054 489.129 201.874 489.101 201.618C489.072 201.361 489.257 201.125 489.517 201.089L492.623 200.662C492.883 200.626 493.12 200.805 493.148 201.062C493.181 201.318 492.992 201.555 492.732 201.591L489.626 202.018ZM495.938 201.383C495.678 201.438 495.427 201.277 495.38 201.024C495.328 200.771 495.498 200.521 495.753 200.466L498.798 199.815C499.054 199.76 499.304 199.92 499.356 200.173C499.404 200.426 499.238 200.676 498.978 200.731L495.938 201.383ZM463.988 200.804C463.727 200.84 463.491 200.662 463.461 200.405C463.431 200.149 463.618 199.911 463.878 199.876L466.983 199.449C467.244 199.413 467.48 199.592 467.51 199.848C467.54 200.105 467.353 200.342 467.093 200.378L463.988 200.804ZM476.869 198.963C476.604 198.999 476.372 198.82 476.339 198.564C476.311 198.307 476.495 198.07 476.755 198.034L479.862 197.608C480.122 197.572 480.358 197.75 480.391 198.007C480.42 198.264 480.231 198.5 479.97 198.536L476.869 198.963ZM470.296 200.169C470.038 200.225 469.789 200.065 469.739 199.811C469.69 199.558 469.858 199.308 470.116 199.253L473.157 198.602C473.417 198.547 473.663 198.707 473.715 198.96C473.767 199.213 473.597 199.463 473.337 199.518L470.296 200.169ZM483.176 198.328C482.916 198.383 482.67 198.223 482.618 197.97C482.571 197.717 482.737 197.467 482.997 197.411L486.037 196.76C486.297 196.705 486.543 196.866 486.595 197.119C486.642 197.372 486.477 197.621 486.216 197.677L483.176 198.328ZM489.744 197.122C489.484 197.158 489.247 196.978 489.219 196.722C489.191 196.465 489.375 196.228 489.635 196.193L492.741 195.766C493.002 195.73 493.238 195.909 493.266 196.166C493.299 196.422 493.11 196.659 492.85 196.695L489.744 197.122ZM496.056 196.487C495.796 196.542 495.545 196.381 495.498 196.128C495.446 195.875 495.616 195.626 495.876 195.57L498.917 194.919C499.177 194.864 499.423 195.024 499.475 195.277C499.522 195.53 499.356 195.78 499.096 195.836L496.056 196.487ZM464.106 195.908C463.845 195.944 463.61 195.766 463.579 195.509C463.549 195.253 463.736 195.016 463.997 194.98L467.103 194.553C467.363 194.517 467.599 194.696 467.629 194.953C467.659 195.209 467.472 195.446 467.211 195.482L464.106 195.908ZM476.987 194.067C476.722 194.103 476.49 193.924 476.457 193.668C476.429 193.411 476.613 193.174 476.878 193.138L479.98 192.712C480.24 192.676 480.476 192.854 480.509 193.111C480.538 193.367 480.353 193.605 480.089 193.64L476.987 194.067ZM470.415 195.273C470.157 195.329 469.908 195.168 469.858 194.915C469.808 194.662 469.977 194.412 470.234 194.357L473.275 193.706C473.535 193.651 473.786 193.811 473.833 194.064C473.885 194.317 473.715 194.567 473.46 194.622L470.415 195.273ZM483.294 193.432C483.034 193.487 482.789 193.327 482.737 193.074C482.689 192.821 482.855 192.571 483.115 192.516L486.155 191.864C486.415 191.809 486.661 191.97 486.713 192.223C486.765 192.476 486.595 192.726 486.335 192.781L483.294 193.432ZM489.867 192.226C489.602 192.261 489.366 192.083 489.337 191.826C489.309 191.57 489.493 191.333 489.753 191.297L492.86 190.87C493.12 190.834 493.356 191.013 493.389 191.269C493.418 191.526 493.228 191.763 492.968 191.799L489.867 192.226ZM496.174 191.591C495.914 191.646 495.668 191.486 495.616 191.232C495.569 190.979 495.734 190.73 495.995 190.674L499.035 190.023C499.295 189.968 499.541 190.128 499.593 190.382C499.64 190.634 499.475 190.884 499.215 190.939L496.174 191.591ZM464.225 191.013C463.964 191.048 463.728 190.869 463.698 190.613C463.668 190.356 463.855 190.12 464.116 190.084L467.221 189.657C467.482 189.621 467.718 189.8 467.748 190.057C467.778 190.313 467.591 190.55 467.33 190.586L464.225 191.013ZM477.105 189.171C476.845 189.207 476.609 189.028 476.576 188.772C476.547 188.515 476.736 188.278 476.996 188.242L480.098 187.815C480.363 187.78 480.595 187.959 480.628 188.215C480.656 188.472 480.472 188.709 480.207 188.745L477.105 189.171ZM470.534 190.378C470.276 190.433 470.026 190.272 469.977 190.019C469.927 189.766 470.096 189.516 470.354 189.461L473.398 188.81C473.654 188.755 473.904 188.915 473.951 189.168C474.003 189.421 473.833 189.671 473.578 189.726L470.534 190.378ZM483.413 188.536C483.157 188.591 482.907 188.431 482.855 188.178C482.807 187.925 482.973 187.675 483.233 187.62L486.273 186.969C486.533 186.913 486.784 187.074 486.831 187.327C486.883 187.58 486.713 187.83 486.453 187.885L483.413 188.536ZM489.985 187.33C489.72 187.365 489.488 187.187 489.455 186.93C489.427 186.674 489.611 186.437 489.876 186.401L492.978 185.974C493.238 185.938 493.474 186.117 493.507 186.374C493.536 186.63 493.351 186.867 493.087 186.903L489.985 187.33ZM496.292 186.695C496.032 186.75 495.786 186.589 495.734 186.336C495.687 186.084 495.853 185.833 496.113 185.778L499.153 185.127C499.413 185.072 499.659 185.232 499.711 185.485C499.763 185.738 499.593 185.988 499.333 186.043L496.292 186.695ZM477.223 184.275C476.963 184.311 476.727 184.132 476.699 183.875C476.665 183.619 476.855 183.382 477.115 183.346L480.221 182.919C480.481 182.884 480.718 183.063 480.746 183.319C480.774 183.576 480.59 183.813 480.33 183.848L477.223 184.275ZM470.652 185.482C470.395 185.537 470.146 185.376 470.095 185.123C470.046 184.87 470.215 184.621 470.472 184.565L473.516 183.914C473.772 183.859 474.022 184.019 474.07 184.272C474.122 184.525 473.951 184.775 473.696 184.831L470.652 185.482ZM483.531 183.64C483.276 183.695 483.025 183.535 482.973 183.282C482.926 183.029 483.096 182.779 483.351 182.724L486.391 182.073C486.651 182.017 486.902 182.178 486.949 182.431C487.001 182.684 486.831 182.934 486.576 182.989L483.531 183.64ZM465.896 185.903L464.344 186.117C463.714 186.203 463.605 185.274 464.235 185.188L465.787 184.974L467.34 184.761C467.97 184.674 468.078 185.604 467.449 185.69L465.896 185.903ZM491.545 181.291C492.174 181.205 492.283 182.134 491.654 182.221L490.103 182.434C489.474 182.52 489.366 181.591 489.994 181.505L491.545 181.291L493.096 181.078C493.73 180.992 493.838 181.921 493.205 182.007L491.654 182.221C491.025 182.307 490.916 181.378 491.545 181.291ZM496.411 181.799C496.155 181.854 495.905 181.693 495.853 181.44C495.805 181.187 495.971 180.937 496.231 180.882L499.271 180.231C499.531 180.176 499.782 180.336 499.829 180.589C499.881 180.842 499.711 181.092 499.451 181.147L496.411 181.799ZM423.139 189.594C423.132 189.335 423.339 189.115 423.601 189.102C423.864 189.088 424.082 189.287 424.089 189.546L424.176 192.626C424.183 192.884 423.976 193.105 423.714 193.118C423.451 193.131 423.233 192.932 423.225 192.674L423.139 189.594ZM428.071 190.021C428.064 189.762 428.27 189.541 428.533 189.528C428.795 189.515 429.014 189.714 429.021 189.973L429.107 193.053C429.114 193.311 428.908 193.531 428.645 193.545C428.383 193.558 428.164 193.359 428.157 193.101L428.071 190.021ZM423.569 202.373C423.562 202.114 423.769 201.894 424.031 201.88C424.294 201.867 424.512 202.066 424.519 202.325L424.606 205.405C424.613 205.663 424.406 205.884 424.144 205.897C423.881 205.911 423.663 205.711 423.655 205.453L423.569 202.373ZM428.501 202.8C428.494 202.541 428.701 202.32 428.963 202.307C429.225 202.294 429.444 202.492 429.451 202.751L429.537 205.831C429.545 206.09 429.338 206.311 429.075 206.324C428.813 206.337 428.595 206.138 428.587 205.88L428.501 202.8ZM423.08 195.837C423.053 195.58 423.243 195.345 423.504 195.312C423.765 195.279 423.999 195.461 424.026 195.717L424.346 198.75C424.373 199.007 424.183 199.242 423.922 199.275C423.661 199.308 423.428 199.126 423.4 198.869L423.08 195.837ZM428.012 196.263C427.985 196.007 428.174 195.772 428.435 195.739C428.697 195.706 428.93 195.888 428.957 196.144L429.277 199.177C429.304 199.434 429.115 199.669 428.854 199.701C428.593 199.734 428.359 199.553 428.332 199.296L428.012 196.263ZM423.51 208.616C423.483 208.359 423.673 208.124 423.934 208.091C424.195 208.058 424.429 208.24 424.456 208.496L424.776 211.529C424.803 211.786 424.613 212.021 424.352 212.053C424.091 212.087 423.858 211.905 423.83 211.648L423.51 208.616ZM428.442 209.043C428.415 208.786 428.605 208.551 428.866 208.518C429.127 208.485 429.361 208.667 429.388 208.923L429.708 211.956C429.735 212.213 429.545 212.447 429.284 212.48C429.023 212.514 428.789 212.332 428.762 212.075L428.442 209.043ZM424 215.152C423.993 214.893 424.199 214.672 424.462 214.659C424.724 214.646 424.942 214.845 424.95 215.104L425.036 218.184C425.043 218.442 424.837 218.663 424.574 218.676C424.312 218.689 424.093 218.491 424.086 218.232L424 215.152ZM428.931 215.578C428.924 215.32 429.131 215.099 429.393 215.086C429.656 215.073 429.874 215.272 429.882 215.53L429.968 218.61C429.975 218.869 429.768 219.09 429.506 219.103C429.243 219.116 429.025 218.917 429.017 218.658L428.931 215.578ZM423.941 221.395C423.914 221.138 424.103 220.903 424.364 220.87C424.626 220.837 424.859 221.019 424.886 221.275L425.206 224.308C425.233 224.565 425.044 224.8 424.783 224.833C424.522 224.866 424.288 224.684 424.261 224.427L423.941 221.395ZM428.872 221.822C428.845 221.564 429.035 221.33 429.296 221.297C429.557 221.264 429.791 221.445 429.818 221.702L430.138 224.735C430.165 224.991 429.975 225.226 429.714 225.26C429.453 225.292 429.22 225.111 429.192 224.854L428.872 221.822ZM433.002 190.447C432.995 190.189 433.202 189.968 433.464 189.955C433.727 189.942 433.945 190.14 433.953 190.399L434.039 193.479C434.046 193.738 433.839 193.958 433.577 193.972C433.314 193.985 433.096 193.786 433.088 193.527L433.002 190.447ZM433.433 203.226C433.425 202.968 433.632 202.747 433.895 202.734C434.157 202.72 434.375 202.919 434.383 203.178L434.469 206.258C434.476 206.517 434.269 206.737 434.007 206.751C433.745 206.764 433.526 206.565 433.519 206.306L433.433 203.226ZM432.943 196.69C432.916 196.433 433.106 196.199 433.367 196.166C433.628 196.132 433.862 196.314 433.889 196.571L434.209 199.604C434.236 199.86 434.046 200.095 433.785 200.128C433.524 200.161 433.291 199.979 433.263 199.723L432.943 196.69ZM433.373 209.469C433.347 209.212 433.536 208.977 433.797 208.945C434.059 208.912 434.292 209.093 434.319 209.35L434.639 212.383C434.666 212.639 434.477 212.874 434.216 212.907C433.955 212.94 433.721 212.758 433.694 212.502L433.373 209.469ZM433.863 216.005C433.856 215.747 434.062 215.526 434.325 215.513C434.587 215.499 434.806 215.699 434.813 215.957L434.899 219.037C434.906 219.296 434.7 219.516 434.437 219.529C434.175 219.543 433.956 219.344 433.949 219.085L433.863 216.005ZM433.804 222.248C433.777 221.991 433.966 221.756 434.227 221.724C434.489 221.691 434.722 221.872 434.749 222.129L435.069 225.162C435.096 225.418 434.907 225.653 434.646 225.686C434.385 225.719 434.151 225.538 434.124 225.281L433.804 222.248ZM437.934 190.874C437.927 190.616 438.133 190.395 438.396 190.382C438.658 190.368 438.877 190.567 438.884 190.826L438.97 193.906C438.977 194.165 438.771 194.385 438.508 194.398C438.246 194.412 438.027 194.213 438.02 193.954L437.934 190.874ZM438.364 203.653C438.357 203.395 438.564 203.174 438.826 203.161C439.088 203.147 439.307 203.346 439.315 203.605L439.401 206.685C439.408 206.944 439.201 207.164 438.939 207.177C438.676 207.19 438.458 206.992 438.451 206.733L438.364 203.653ZM437.875 197.117C437.848 196.86 438.037 196.625 438.298 196.593C438.56 196.559 438.793 196.741 438.82 196.998L439.141 200.03C439.167 200.287 438.978 200.522 438.717 200.555C438.456 200.588 438.222 200.406 438.195 200.15L437.875 197.117ZM438.305 209.896C438.278 209.639 438.468 209.404 438.729 209.371C438.99 209.339 439.224 209.52 439.251 209.777L439.571 212.809C439.598 213.066 439.408 213.301 439.147 213.334C438.886 213.367 438.653 213.185 438.625 212.928L438.305 209.896ZM438.794 216.432C438.787 216.174 438.994 215.953 439.256 215.94C439.519 215.926 439.737 216.125 439.745 216.384L439.831 219.464C439.838 219.722 439.631 219.943 439.369 219.956C439.106 219.97 438.888 219.771 438.881 219.512L438.794 216.432ZM438.736 222.675C438.708 222.418 438.898 222.183 439.159 222.15C439.42 222.118 439.654 222.299 439.681 222.556L440.001 225.588C440.028 225.845 439.838 226.08 439.577 226.113C439.316 226.146 439.083 225.965 439.055 225.707L438.736 222.675ZM442.865 191.301C442.858 191.043 443.065 190.822 443.327 190.808C443.59 190.795 443.808 190.994 443.816 191.252L443.902 194.332C443.909 194.591 443.702 194.812 443.44 194.825C443.177 194.838 442.959 194.64 442.952 194.381L442.865 191.301ZM443.296 204.08C443.289 203.821 443.495 203.601 443.758 203.588C444.02 203.574 444.239 203.773 444.246 204.032L444.332 207.112C444.34 207.37 444.133 207.591 443.87 207.604C443.608 207.617 443.389 207.418 443.382 207.16L443.296 204.08ZM442.807 197.544C442.779 197.287 442.969 197.052 443.23 197.019C443.491 196.986 443.725 197.168 443.752 197.425L444.072 200.457C444.099 200.714 443.909 200.949 443.648 200.982C443.387 201.015 443.154 200.833 443.126 200.576L442.807 197.544ZM443.237 210.323C443.21 210.066 443.399 209.831 443.661 209.798C443.922 209.765 444.155 209.947 444.182 210.204L444.502 213.236C444.53 213.493 444.34 213.728 444.079 213.761C443.818 213.793 443.584 213.612 443.557 213.355L443.237 210.323ZM443.726 216.859C443.719 216.6 443.926 216.38 444.188 216.367C444.45 216.353 444.669 216.552 444.676 216.811L444.762 219.891C444.77 220.149 444.563 220.37 444.3 220.383C444.038 220.397 443.82 220.197 443.813 219.939L443.726 216.859ZM443.667 223.102C443.64 222.845 443.83 222.61 444.091 222.577C444.352 222.544 444.586 222.726 444.613 222.983L444.933 226.015C444.96 226.272 444.77 226.507 444.509 226.54C444.248 226.573 444.014 226.391 443.987 226.134L443.667 223.102ZM447.797 191.728C447.79 191.469 447.997 191.249 448.259 191.235C448.521 191.222 448.74 191.421 448.747 191.679L448.833 194.759C448.841 195.018 448.634 195.238 448.372 195.252C448.109 195.265 447.891 195.066 447.884 194.808L447.797 191.728ZM448.227 204.507C448.22 204.248 448.427 204.028 448.689 204.014C448.952 204.001 449.171 204.2 449.178 204.458L449.264 207.538C449.271 207.797 449.064 208.017 448.802 208.031C448.539 208.044 448.321 207.845 448.314 207.587L448.227 204.507ZM447.738 197.971C447.711 197.714 447.901 197.479 448.162 197.446C448.423 197.413 448.657 197.594 448.684 197.851L449.004 200.884C449.031 201.141 448.841 201.376 448.58 201.409C448.319 201.441 448.085 201.26 448.058 201.003L447.738 197.971ZM448.169 210.749C448.141 210.493 448.331 210.258 448.592 210.225C448.853 210.192 449.087 210.374 449.114 210.63L449.434 213.663C449.461 213.92 449.271 214.155 449.01 214.187C448.749 214.22 448.516 214.039 448.489 213.782L448.169 210.749ZM448.658 217.286C448.65 217.027 448.857 216.807 449.12 216.793C449.382 216.78 449.601 216.979 449.608 217.238L449.694 220.318C449.702 220.576 449.494 220.797 449.232 220.81C448.97 220.823 448.751 220.624 448.744 220.366L448.658 217.286ZM448.599 223.529C448.571 223.272 448.761 223.037 449.023 223.004C449.284 222.971 449.517 223.153 449.544 223.409L449.864 226.442C449.892 226.699 449.702 226.934 449.441 226.966C449.18 227 448.946 226.818 448.919 226.561L448.599 223.529ZM453.159 204.934C453.152 204.675 453.358 204.454 453.621 204.441C453.883 204.428 454.102 204.626 454.109 204.885L454.195 207.965C454.203 208.224 453.996 208.444 453.733 208.458C453.471 208.471 453.252 208.272 453.245 208.014L453.159 204.934ZM452.67 198.397C452.643 198.141 452.832 197.906 453.094 197.872C453.355 197.84 453.588 198.021 453.615 198.278L453.935 201.31C453.963 201.568 453.773 201.803 453.512 201.835C453.251 201.868 453.017 201.687 452.99 201.43L452.67 198.397ZM453.1 211.176C453.073 210.92 453.262 210.685 453.524 210.652C453.785 210.619 454.018 210.8 454.045 211.057L454.366 214.089C454.393 214.347 454.203 214.581 453.942 214.614C453.681 214.647 453.447 214.466 453.42 214.209L453.1 211.176ZM452.772 193.695L452.729 192.155C452.711 191.53 453.661 191.482 453.679 192.106L453.722 193.646L453.765 195.186C453.783 195.811 452.833 195.859 452.815 195.235L452.772 193.695ZM454.583 219.204C454.6 219.829 453.65 219.877 453.633 219.252L453.589 217.712C453.572 217.088 454.522 217.04 454.54 217.664L454.583 219.204L454.626 220.744C454.643 221.369 453.693 221.417 453.676 220.792L453.633 219.252C453.615 218.628 454.565 218.58 454.583 219.204ZM453.53 223.955C453.503 223.698 453.693 223.464 453.954 223.431C454.215 223.398 454.449 223.579 454.476 223.836L454.796 226.869C454.823 227.125 454.634 227.36 454.372 227.393C454.111 227.426 453.878 227.244 453.851 226.988L453.53 223.955ZM488.789 234.76C488.647 234.548 488.704 234.256 488.921 234.107C489.143 233.959 489.436 234.011 489.583 234.223L491.309 236.751C491.455 236.963 491.399 237.255 491.176 237.404C490.959 237.552 490.666 237.5 490.519 237.288L488.789 234.76ZM493.262 232.537C493.12 232.325 493.176 232.033 493.399 231.884C493.616 231.736 493.909 231.788 494.056 232L495.787 234.528C495.928 234.74 495.872 235.032 495.649 235.181C495.432 235.329 495.139 235.277 494.992 235.065L493.262 232.537ZM496.028 245.21C495.881 244.998 495.938 244.705 496.16 244.557C496.378 244.409 496.671 244.461 496.817 244.673L498.548 247.201C498.69 247.413 498.633 247.706 498.415 247.854C498.193 248.002 497.9 247.95 497.753 247.738L496.028 245.21ZM500.501 242.988C500.354 242.775 500.415 242.483 500.633 242.335C500.85 242.186 501.148 242.238 501.29 242.45L503.021 244.978C503.167 245.19 503.106 245.483 502.888 245.631C502.671 245.779 502.373 245.728 502.226 245.515L500.501 242.988ZM492.094 240.006C491.933 239.806 491.971 239.51 492.174 239.346C492.382 239.182 492.68 239.212 492.841 239.412L494.746 241.778C494.907 241.978 494.874 242.274 494.666 242.438C494.458 242.602 494.16 242.572 493.999 242.372L492.094 240.006ZM496.567 237.783C496.406 237.583 496.444 237.287 496.652 237.123C496.855 236.96 497.158 236.989 497.318 237.189L499.224 239.555C499.385 239.755 499.347 240.051 499.139 240.215C498.931 240.379 498.633 240.349 498.472 240.149L496.567 237.783ZM499.328 250.456C499.167 250.255 499.205 249.96 499.413 249.796C499.616 249.632 499.919 249.662 500.08 249.862L501.985 252.228C502.146 252.428 502.108 252.724 501.9 252.888C501.692 253.052 501.394 253.022 501.233 252.822L499.328 250.456ZM503.801 248.234C503.64 248.033 503.678 247.738 503.886 247.574C504.094 247.41 504.392 247.439 504.553 247.639L506.458 250.005C506.619 250.205 506.581 250.501 506.373 250.665C506.17 250.829 505.867 250.8 505.706 250.599L503.801 248.234ZM503.262 255.66C503.115 255.448 503.177 255.156 503.394 255.007C503.612 254.859 503.91 254.911 504.052 255.123L505.782 257.651C505.929 257.863 505.867 258.155 505.65 258.304C505.432 258.452 505.134 258.4 504.992 258.188L503.262 255.66ZM507.735 253.438C507.588 253.225 507.65 252.933 507.867 252.785C508.089 252.636 508.383 252.688 508.529 252.9L510.255 255.428C510.402 255.64 510.34 255.933 510.123 256.081C509.905 256.23 509.612 256.178 509.465 255.965L507.735 253.438ZM506.567 260.906C506.401 260.706 506.439 260.41 506.647 260.246C506.855 260.082 507.153 260.112 507.314 260.312L509.219 262.678C509.38 262.879 509.342 263.174 509.134 263.338C508.931 263.502 508.628 263.472 508.468 263.272L506.567 260.906ZM511.04 258.684C510.879 258.483 510.912 258.188 511.12 258.024C511.328 257.859 511.626 257.889 511.787 258.09L513.692 260.455C513.853 260.656 513.815 260.951 513.612 261.115C513.404 261.279 513.106 261.25 512.945 261.049L511.04 258.684ZM497.739 230.315C497.593 230.103 497.654 229.81 497.872 229.662C498.089 229.514 498.387 229.565 498.529 229.777L500.259 232.305C500.406 232.517 500.345 232.81 500.127 232.958C499.905 233.107 499.612 233.055 499.465 232.843L497.739 230.315ZM504.974 240.765C504.827 240.553 504.888 240.26 505.106 240.112C505.323 239.963 505.621 240.015 505.768 240.228L507.494 242.756C507.64 242.968 507.579 243.26 507.361 243.408C507.144 243.557 506.846 243.505 506.704 243.293L504.974 240.765ZM501.04 235.561C500.879 235.36 500.917 235.065 501.125 234.901C501.333 234.737 501.631 234.766 501.791 234.967L503.697 237.332C503.858 237.533 503.82 237.828 503.612 237.992C503.404 238.156 503.106 238.127 502.945 237.927L501.04 235.561ZM508.279 246.011C508.118 245.81 508.151 245.515 508.359 245.351C508.567 245.187 508.865 245.216 509.026 245.417L510.931 247.783C511.092 247.983 511.054 248.279 510.851 248.442C510.643 248.606 510.345 248.577 510.184 248.376L508.279 246.011ZM512.208 251.215C512.066 251.003 512.123 250.71 512.345 250.562C512.562 250.413 512.856 250.465 513.002 250.678L514.733 253.205C514.874 253.418 514.818 253.71 514.595 253.858C514.378 254.007 514.085 253.955 513.938 253.743L512.208 251.215ZM515.513 256.461C515.352 256.26 515.39 255.965 515.598 255.801C515.801 255.637 516.099 255.666 516.265 255.867L518.165 258.233C518.331 258.433 518.293 258.729 518.085 258.893C517.877 259.057 517.579 259.027 517.418 258.827L515.513 256.461ZM502.212 228.092C502.066 227.88 502.127 227.587 502.345 227.439C502.562 227.291 502.86 227.342 503.002 227.555L504.732 230.082C504.879 230.295 504.817 230.587 504.6 230.736C504.382 230.884 504.085 230.832 503.943 230.62L502.212 228.092ZM509.446 238.542C509.305 238.33 509.361 238.038 509.579 237.889C509.801 237.741 510.094 237.793 510.241 238.005L511.967 240.533C512.113 240.745 512.056 241.037 511.834 241.186C511.617 241.334 511.324 241.282 511.177 241.07L509.446 238.542ZM505.517 233.338C505.352 233.138 505.39 232.842 505.598 232.678C505.806 232.514 506.104 232.543 506.264 232.744L508.17 235.11C508.331 235.31 508.293 235.605 508.085 235.77C507.881 235.934 507.584 235.904 507.418 235.704L505.517 233.338ZM512.751 243.788C512.591 243.588 512.629 243.292 512.832 243.128C513.04 242.964 513.338 242.994 513.499 243.194L515.404 245.56C515.565 245.76 515.532 246.056 515.324 246.22C515.116 246.384 514.818 246.354 514.657 246.154L512.751 243.788ZM516.685 248.992C516.539 248.78 516.6 248.488 516.818 248.339C517.035 248.191 517.328 248.243 517.475 248.455L519.206 250.983C519.347 251.195 519.291 251.487 519.073 251.636C518.851 251.784 518.558 251.733 518.411 251.52L516.685 248.992ZM519.986 254.238C519.825 254.038 519.863 253.742 520.071 253.579C520.279 253.414 520.577 253.444 520.738 253.644L522.643 256.01C522.804 256.21 522.766 256.506 522.558 256.67C522.35 256.834 522.052 256.805 521.891 256.604L519.986 254.238ZM506.685 225.869C506.539 225.657 506.6 225.365 506.818 225.217C507.04 225.068 507.333 225.12 507.48 225.332L509.205 227.86C509.352 228.072 509.29 228.365 509.073 228.513C508.855 228.661 508.562 228.609 508.416 228.397L506.685 225.869ZM513.924 236.319C513.778 236.107 513.834 235.815 514.056 235.666C514.274 235.518 514.567 235.57 514.714 235.782L516.444 238.31C516.586 238.522 516.529 238.815 516.312 238.963C516.09 239.111 515.796 239.059 515.65 238.847L513.924 236.319ZM509.99 231.115C509.829 230.915 509.867 230.619 510.071 230.455C510.279 230.291 510.577 230.321 510.737 230.521L512.643 232.887C512.803 233.088 512.77 233.383 512.562 233.547C512.354 233.711 512.056 233.682 511.896 233.481L509.99 231.115ZM517.224 241.565C517.064 241.365 517.101 241.069 517.31 240.905C517.513 240.741 517.815 240.771 517.976 240.972L519.882 243.337C520.042 243.538 520.005 243.833 519.797 243.997C519.589 244.161 519.291 244.131 519.13 243.931L517.224 241.565ZM521.158 246.77C521.012 246.558 521.073 246.265 521.291 246.117C521.508 245.968 521.806 246.02 521.948 246.232L523.679 248.76C523.825 248.972 523.764 249.265 523.546 249.413C523.329 249.561 523.031 249.51 522.889 249.298L521.158 246.77ZM524.459 252.015C524.298 251.815 524.336 251.52 524.544 251.356C524.752 251.192 525.05 251.221 525.21 251.421L527.116 253.787C527.277 253.987 527.239 254.283 527.031 254.447C526.828 254.611 526.525 254.582 526.364 254.381L524.459 252.015ZM511.158 223.647C511.016 223.434 511.073 223.142 511.295 222.994C511.513 222.845 511.806 222.897 511.952 223.11L513.683 225.637C513.825 225.85 513.768 226.142 513.546 226.29C513.328 226.439 513.035 226.387 512.889 226.174L511.158 223.647ZM518.397 234.097C518.25 233.884 518.312 233.592 518.529 233.444C518.747 233.296 519.045 233.347 519.187 233.56L520.917 236.087C521.064 236.3 521.002 236.592 520.785 236.74C520.567 236.889 520.269 236.837 520.123 236.625L518.397 234.097ZM514.463 228.893C514.302 228.692 514.34 228.397 514.548 228.233C514.752 228.069 515.054 228.098 515.215 228.298L517.116 230.664C517.281 230.865 517.243 231.16 517.035 231.324C516.827 231.489 516.529 231.459 516.369 231.258L514.463 228.893ZM521.697 239.343C521.537 239.142 521.574 238.847 521.782 238.683C521.991 238.519 522.288 238.548 522.449 238.749L524.355 241.114C524.515 241.315 524.478 241.61 524.27 241.774C524.066 241.938 523.764 241.909 523.603 241.709L521.697 239.343ZM525.631 244.547C525.485 244.335 525.546 244.043 525.764 243.894C525.986 243.746 526.279 243.797 526.426 244.009L528.151 246.538C528.298 246.749 528.237 247.042 528.019 247.191C527.802 247.339 527.504 247.287 527.362 247.075L525.631 244.547ZM528.936 249.793C528.776 249.593 528.809 249.297 529.017 249.133C529.225 248.969 529.523 248.998 529.683 249.199L531.589 251.565C531.75 251.765 531.712 252.06 531.508 252.224C531.3 252.388 531.003 252.359 530.842 252.159L528.936 249.793ZM522.87 231.874C522.723 231.662 522.785 231.369 523.002 231.221C523.22 231.073 523.518 231.124 523.664 231.337L525.39 233.864C525.537 234.077 525.475 234.369 525.258 234.517C525.04 234.666 524.742 234.614 524.601 234.402L522.87 231.874ZM518.936 226.67C518.775 226.469 518.813 226.174 519.021 226.01C519.229 225.846 519.527 225.876 519.688 226.076L521.593 228.442C521.754 228.642 521.716 228.938 521.508 229.102C521.3 229.266 521.002 229.236 520.842 229.036L518.936 226.67ZM526.175 237.12C526.014 236.919 526.047 236.624 526.255 236.46C526.463 236.296 526.761 236.326 526.922 236.526L528.828 238.892C528.988 239.092 528.951 239.388 528.747 239.552C528.539 239.716 528.241 239.686 528.076 239.486L526.175 237.12ZM516.501 222.688L515.636 221.424C515.286 220.911 516.075 220.374 516.425 220.887L517.291 222.151L518.156 223.415C518.506 223.927 517.711 224.464 517.362 223.952L516.501 222.688ZM531.764 243.051C532.114 243.564 531.319 244.101 530.969 243.588L530.104 242.324C529.754 241.812 530.549 241.275 530.899 241.787L531.764 243.051L532.629 244.315C532.979 244.827 532.185 245.365 531.835 244.852L530.969 243.588C530.62 243.076 531.414 242.538 531.764 243.051ZM533.409 247.57C533.249 247.37 533.286 247.074 533.49 246.91C533.698 246.746 533.996 246.775 534.161 246.976L536.062 249.342C536.223 249.542 536.189 249.838 535.981 250.002C535.773 250.166 535.476 250.136 535.315 249.936L533.409 247.57ZM510.09 266.514C509.952 266.297 510.019 266.006 510.246 265.865C510.468 265.724 510.761 265.786 510.898 266.004L512.534 268.592C512.671 268.809 512.6 269.099 512.378 269.24C512.156 269.381 511.863 269.319 511.725 269.102L510.09 266.514ZM514.633 264.445C514.496 264.227 514.567 263.937 514.789 263.796C515.012 263.655 515.305 263.717 515.442 263.935L517.083 266.523C517.22 266.74 517.149 267.03 516.927 267.171C516.7 267.312 516.406 267.25 516.269 267.033L514.633 264.445ZM516.945 277.216C516.804 276.999 516.875 276.708 517.101 276.567C517.324 276.426 517.617 276.488 517.754 276.705L519.39 279.294C519.527 279.511 519.456 279.801 519.234 279.942C519.012 280.083 518.719 280.021 518.581 279.804L516.945 277.216ZM521.489 275.146C521.352 274.929 521.423 274.639 521.645 274.498C521.868 274.357 522.161 274.419 522.298 274.636L523.939 277.225C524.076 277.442 524.005 277.732 523.783 277.873C523.556 278.014 523.262 277.952 523.125 277.735L521.489 275.146ZM513.201 271.875C513.045 271.669 513.092 271.375 513.305 271.218C513.517 271.061 513.815 271.1 513.971 271.307L515.787 273.738C515.943 273.945 515.896 274.239 515.683 274.396C515.47 274.553 515.172 274.513 515.016 274.307L513.201 271.875ZM517.745 269.806C517.593 269.6 517.641 269.306 517.853 269.149C518.066 268.992 518.364 269.031 518.515 269.238L520.336 271.669C520.487 271.875 520.44 272.17 520.227 272.327C520.014 272.484 519.721 272.444 519.565 272.238L517.745 269.806ZM520.057 282.576C519.901 282.37 519.948 282.076 520.161 281.919C520.373 281.762 520.671 281.802 520.827 282.008L522.643 284.44C522.799 284.646 522.752 284.941 522.539 285.098C522.326 285.254 522.028 285.214 521.872 285.009L520.057 282.576ZM524.601 280.507C524.449 280.302 524.496 280.007 524.709 279.85C524.922 279.693 525.22 279.733 525.371 279.939L527.192 282.371C527.343 282.577 527.296 282.871 527.083 283.028C526.87 283.185 526.577 283.145 526.421 282.94L524.601 280.507ZM523.797 287.917C523.66 287.7 523.731 287.41 523.953 287.269C524.18 287.128 524.473 287.19 524.61 287.407L526.246 289.995C526.383 290.213 526.312 290.503 526.09 290.644C525.868 290.785 525.575 290.723 525.437 290.505L523.797 287.917ZM528.345 285.848C528.208 285.631 528.279 285.341 528.501 285.2C528.724 285.059 529.017 285.121 529.154 285.338L530.79 287.926C530.932 288.144 530.861 288.434 530.634 288.575C530.412 288.716 530.118 288.654 529.981 288.436L528.345 285.848ZM526.913 293.278C526.757 293.072 526.804 292.778 527.017 292.621C527.229 292.464 527.527 292.504 527.683 292.71L529.499 295.142C529.655 295.348 529.608 295.642 529.395 295.799C529.182 295.956 528.884 295.916 528.728 295.71L526.913 293.278ZM531.456 291.209C531.305 291.003 531.352 290.709 531.565 290.552C531.778 290.395 532.076 290.435 532.227 290.641L534.048 293.073C534.199 293.279 534.152 293.573 533.939 293.73C533.726 293.887 533.428 293.847 533.277 293.641L531.456 291.209ZM519.182 262.376C519.045 262.158 519.111 261.868 519.338 261.727C519.56 261.586 519.853 261.648 519.99 261.866L521.626 264.454C521.764 264.671 521.693 264.961 521.47 265.102C521.248 265.243 520.955 265.181 520.818 264.964L519.182 262.376ZM526.038 273.077C525.896 272.86 525.967 272.57 526.194 272.429C526.416 272.288 526.709 272.35 526.846 272.567L528.482 275.155C528.62 275.372 528.549 275.663 528.326 275.804C528.104 275.945 527.811 275.883 527.674 275.666L526.038 273.077ZM522.293 267.737C522.137 267.531 522.184 267.237 522.397 267.08C522.61 266.923 522.908 266.962 523.064 267.168L524.879 269.6C525.035 269.806 524.988 270.1 524.775 270.257C524.563 270.414 524.265 270.375 524.113 270.169L522.293 267.737ZM529.149 278.438C528.993 278.233 529.04 277.938 529.253 277.781C529.466 277.624 529.764 277.664 529.92 277.87L531.735 280.302C531.891 280.508 531.844 280.802 531.631 280.959C531.419 281.116 531.121 281.076 530.965 280.871L529.149 278.438ZM532.889 283.779C532.752 283.562 532.823 283.271 533.045 283.131C533.272 282.99 533.565 283.052 533.702 283.269L535.338 285.857C535.475 286.074 535.405 286.365 535.182 286.506C534.96 286.647 534.667 286.585 534.53 286.367L532.889 283.779ZM536.005 289.14C535.849 288.934 535.896 288.64 536.109 288.483C536.322 288.326 536.62 288.366 536.776 288.572L538.591 291.004C538.747 291.21 538.7 291.504 538.487 291.661C538.275 291.818 537.977 291.778 537.821 291.572L536.005 289.14ZM523.726 260.307C523.589 260.089 523.66 259.799 523.882 259.658C524.104 259.517 524.397 259.579 524.534 259.797L526.175 262.384C526.312 262.602 526.241 262.892 526.019 263.033C525.792 263.174 525.499 263.112 525.362 262.895L523.726 260.307ZM530.582 271.008C530.445 270.791 530.516 270.501 530.738 270.36C530.96 270.219 531.253 270.281 531.39 270.498L533.031 273.086C533.168 273.303 533.097 273.594 532.875 273.735C532.648 273.875 532.355 273.814 532.218 273.597L530.582 271.008ZM526.837 265.668C526.686 265.462 526.733 265.167 526.946 265.01C527.158 264.854 527.456 264.893 527.608 265.099L529.428 267.531C529.579 267.737 529.532 268.031 529.319 268.188C529.107 268.345 528.813 268.306 528.657 268.099L526.837 265.668ZM533.693 276.369C533.542 276.164 533.589 275.869 533.802 275.712C534.014 275.555 534.312 275.595 534.464 275.801L536.284 278.233C536.435 278.439 536.388 278.733 536.175 278.89C535.963 279.047 535.669 279.007 535.513 278.801L533.693 276.369ZM537.438 281.71C537.301 281.493 537.372 281.202 537.594 281.062C537.816 280.921 538.109 280.983 538.246 281.2L539.882 283.788C540.024 284.005 539.953 284.296 539.726 284.437C539.504 284.577 539.211 284.515 539.074 284.298L537.438 281.71ZM540.549 287.071C540.398 286.865 540.445 286.571 540.658 286.414C540.87 286.257 541.168 286.297 541.32 286.503L543.14 288.935C543.291 289.141 543.244 289.435 543.031 289.592C542.818 289.749 542.521 289.709 542.369 289.503L540.549 287.071ZM528.274 258.238C528.137 258.02 528.203 257.73 528.43 257.589C528.653 257.448 528.946 257.51 529.083 257.728L530.719 260.315C530.856 260.533 530.785 260.823 530.563 260.964C530.341 261.105 530.047 261.043 529.91 260.825L528.274 258.238ZM535.13 268.939C534.989 268.722 535.059 268.432 535.286 268.291C535.509 268.15 535.802 268.212 535.939 268.429L537.575 271.017C537.712 271.234 537.641 271.525 537.419 271.666C537.197 271.806 536.903 271.744 536.766 271.527L535.13 268.939ZM531.386 263.599C531.23 263.392 531.277 263.098 531.49 262.941C531.702 262.784 532 262.824 532.156 263.03L533.972 265.462C534.128 265.668 534.081 265.962 533.868 266.119C533.655 266.276 533.357 266.237 533.206 266.03L531.386 263.599ZM538.242 274.3C538.086 274.094 538.133 273.8 538.346 273.643C538.558 273.486 538.856 273.526 539.012 273.732L540.828 276.164C540.984 276.37 540.937 276.664 540.724 276.821C540.511 276.978 540.213 276.938 540.057 276.732L538.242 274.3ZM541.982 279.641C541.844 279.424 541.915 279.133 542.138 278.992C542.365 278.852 542.658 278.913 542.795 279.131L544.431 281.719C544.568 281.936 544.497 282.227 544.275 282.367C544.053 282.508 543.759 282.446 543.622 282.229L541.982 279.641ZM545.098 285.002C544.941 284.796 544.989 284.502 545.202 284.345C545.414 284.188 545.712 284.228 545.868 284.434L547.684 286.865C547.84 287.072 547.793 287.366 547.58 287.523C547.367 287.68 547.069 287.64 546.913 287.434L545.098 285.002ZM532.818 256.169C532.681 255.951 532.752 255.661 532.974 255.52C533.196 255.379 533.49 255.441 533.627 255.658L535.267 258.246C535.405 258.464 535.334 258.754 535.111 258.895C534.884 259.036 534.591 258.974 534.454 258.756L532.818 256.169ZM539.674 266.87C539.537 266.653 539.608 266.363 539.83 266.222C540.052 266.081 540.346 266.143 540.483 266.36L542.123 268.948C542.261 269.165 542.19 269.456 541.967 269.596C541.74 269.737 541.447 269.675 541.31 269.458L539.674 266.87ZM535.929 261.53C535.778 261.323 535.825 261.029 536.038 260.872C536.251 260.715 536.549 260.755 536.7 260.961L538.52 263.393C538.672 263.599 538.625 263.893 538.412 264.05C538.199 264.207 537.906 264.167 537.75 263.961L535.929 261.53ZM542.785 272.231C542.634 272.025 542.681 271.731 542.894 271.574C543.107 271.417 543.405 271.457 543.556 271.663L545.376 274.095C545.528 274.301 545.48 274.595 545.268 274.752C545.055 274.909 544.762 274.869 544.606 274.663L542.785 272.231ZM546.53 277.572C546.393 277.355 546.464 277.064 546.686 276.923C546.908 276.782 547.202 276.844 547.339 277.062L548.975 279.65C549.117 279.867 549.046 280.157 548.819 280.298C548.596 280.439 548.303 280.377 548.166 280.16L546.53 277.572ZM549.641 282.933C549.49 282.727 549.537 282.433 549.75 282.276C549.963 282.119 550.261 282.158 550.412 282.365L552.232 284.796C552.384 285.003 552.336 285.297 552.124 285.454C551.911 285.611 551.613 285.571 551.462 285.365L549.641 282.933ZM544.223 264.801C544.081 264.584 544.152 264.294 544.379 264.153C544.601 264.012 544.894 264.074 545.031 264.291L546.667 266.879C546.804 267.096 546.733 267.387 546.511 267.527C546.289 267.668 545.996 267.606 545.859 267.389L544.223 264.801ZM540.478 259.46C540.322 259.254 540.369 258.96 540.582 258.803C540.795 258.646 541.093 258.686 541.249 258.892L543.064 261.324C543.22 261.53 543.173 261.824 542.96 261.981C542.748 262.138 542.45 262.098 542.298 261.892L540.478 259.46ZM547.334 270.162C547.178 269.956 547.225 269.662 547.438 269.505C547.651 269.348 547.949 269.388 548.105 269.594L549.92 272.026C550.076 272.231 550.029 272.526 549.816 272.683C549.604 272.84 549.306 272.8 549.15 272.594L547.334 270.162ZM538.185 255.394L537.367 254.1C537.031 253.575 537.844 253.065 538.175 253.589L538.993 254.884L539.811 256.177C540.142 256.702 539.334 257.212 539.003 256.687L538.185 255.394ZM552.705 276.287C553.036 276.811 552.228 277.321 551.897 276.797L551.074 275.503C550.743 274.978 551.556 274.468 551.887 274.993L552.705 276.287L553.523 277.581C553.854 278.105 553.046 278.616 552.715 278.091L551.897 276.797C551.561 276.272 552.374 275.762 552.705 276.287ZM554.19 280.864C554.034 280.658 554.081 280.364 554.294 280.207C554.507 280.05 554.805 280.089 554.961 280.296L556.776 282.727C556.932 282.933 556.885 283.228 556.672 283.384C556.46 283.541 556.162 283.502 556.006 283.296L554.19 280.864ZM372.986 204.153C372.734 204.09 372.585 203.835 372.655 203.584C372.725 203.333 372.986 203.18 373.239 203.243L376.253 203.992C376.506 204.055 376.654 204.309 376.585 204.561C376.515 204.812 376.253 204.964 376 204.902L372.986 204.153ZM374.955 199.613C374.702 199.551 374.553 199.296 374.623 199.045C374.693 198.794 374.955 198.641 375.208 198.704L378.221 199.452C378.474 199.515 378.623 199.77 378.553 200.021C378.483 200.272 378.222 200.425 377.969 200.362L374.955 199.613ZM385.512 207.19C385.259 207.128 385.11 206.873 385.18 206.622C385.25 206.371 385.512 206.218 385.765 206.281L388.778 207.029C389.031 207.092 389.179 207.347 389.11 207.598C389.04 207.85 388.778 208.002 388.525 207.939L385.512 207.19ZM387.481 202.651C387.228 202.588 387.079 202.334 387.149 202.083C387.219 201.831 387.48 201.678 387.733 201.741L390.746 202.49C390.999 202.553 391.148 202.807 391.078 203.059C391.008 203.31 390.747 203.463 390.494 203.4L387.481 202.651ZM379.021 205.891C378.763 205.847 378.595 205.605 378.646 205.35C378.696 205.094 378.946 204.923 379.203 204.966L382.244 205.482C382.502 205.525 382.67 205.768 382.619 206.023C382.569 206.278 382.319 206.45 382.061 206.406L379.021 205.891ZM380.989 201.352C380.731 201.308 380.564 201.065 380.614 200.81C380.664 200.555 380.914 200.383 381.172 200.427L384.213 200.942C384.47 200.986 384.638 201.228 384.588 201.483C384.538 201.739 384.288 201.91 384.03 201.866L380.989 201.352ZM391.546 208.929C391.288 208.885 391.12 208.643 391.171 208.387C391.221 208.132 391.471 207.961 391.728 208.004L394.77 208.519C395.027 208.563 395.195 208.805 395.145 209.061C395.094 209.316 394.844 209.487 394.587 209.444L391.546 208.929ZM393.514 204.389C393.257 204.345 393.089 204.103 393.139 203.848C393.19 203.593 393.44 203.421 393.697 203.465L396.738 203.98C396.996 204.023 397.163 204.266 397.113 204.521C397.063 204.776 396.813 204.948 396.555 204.904L393.514 204.389ZM398.037 210.228C397.784 210.165 397.635 209.911 397.705 209.66C397.775 209.409 398.037 209.256 398.29 209.319L401.303 210.067C401.556 210.13 401.705 210.384 401.635 210.636C401.565 210.887 401.304 211.04 401.051 210.977L398.037 210.228ZM400.006 205.689C399.753 205.626 399.604 205.372 399.674 205.12C399.744 204.869 400.005 204.716 400.258 204.779L403.271 205.528C403.525 205.59 403.673 205.845 403.603 206.096C403.534 206.347 403.272 206.5 403.019 206.437L400.006 205.689ZM404.071 211.966C403.813 211.923 403.645 211.68 403.696 211.425C403.746 211.17 403.996 210.998 404.254 211.042L407.295 211.557C407.552 211.601 407.72 211.843 407.67 212.098C407.62 212.353 407.37 212.525 407.112 212.481L404.071 211.966ZM406.04 207.427C405.782 207.383 405.614 207.141 405.664 206.885C405.715 206.63 405.965 206.459 406.222 206.503L409.263 207.017C409.521 207.061 409.689 207.303 409.638 207.559C409.588 207.814 409.338 207.986 409.081 207.942L406.04 207.427ZM376.924 195.074C376.671 195.011 376.522 194.757 376.592 194.506C376.662 194.254 376.923 194.101 377.176 194.164L380.19 194.913C380.442 194.975 380.591 195.23 380.521 195.481C380.451 195.733 380.19 195.886 379.937 195.823L376.924 195.074ZM389.449 198.112C389.196 198.049 389.047 197.794 389.117 197.543C389.187 197.292 389.448 197.139 389.701 197.202L392.715 197.951C392.968 198.013 393.117 198.268 393.047 198.519C392.977 198.77 392.715 198.923 392.462 198.86L389.449 198.112ZM382.957 196.812C382.7 196.768 382.532 196.526 382.583 196.271C382.633 196.016 382.883 195.844 383.14 195.888L386.181 196.402C386.439 196.446 386.607 196.689 386.556 196.944C386.506 197.199 386.256 197.371 385.999 197.327L382.957 196.812ZM395.483 199.85C395.225 199.806 395.058 199.564 395.108 199.308C395.158 199.053 395.408 198.882 395.666 198.925L398.706 199.44C398.964 199.484 399.132 199.726 399.082 199.982C399.031 200.237 398.782 200.408 398.524 200.365L395.483 199.85ZM401.974 201.15C401.721 201.087 401.573 200.832 401.642 200.581C401.712 200.329 401.974 200.177 402.227 200.239L405.24 200.988C405.493 201.051 405.642 201.306 405.572 201.557C405.502 201.808 405.24 201.961 404.987 201.898L401.974 201.15ZM408.008 202.887C407.751 202.844 407.583 202.601 407.633 202.346C407.683 202.091 407.933 201.919 408.191 201.963L411.231 202.478C411.489 202.522 411.657 202.764 411.607 203.019C411.556 203.275 411.307 203.446 411.049 203.403L408.008 202.887ZM378.892 190.535C378.639 190.472 378.491 190.217 378.56 189.966C378.63 189.715 378.892 189.562 379.145 189.625L382.158 190.373C382.411 190.436 382.56 190.691 382.49 190.942C382.42 191.193 382.158 191.346 381.905 191.283L378.892 190.535ZM391.417 193.572C391.164 193.509 391.016 193.255 391.085 193.003C391.155 192.752 391.417 192.6 391.67 192.662L394.684 193.411C394.936 193.474 395.085 193.729 395.015 193.98C394.945 194.231 394.684 194.384 394.431 194.321L391.417 193.572ZM384.926 192.273C384.669 192.229 384.501 191.987 384.551 191.731C384.601 191.476 384.851 191.304 385.109 191.348L388.15 191.863C388.407 191.907 388.575 192.149 388.525 192.404C388.474 192.66 388.225 192.831 387.967 192.788L384.926 192.273ZM397.451 195.31C397.194 195.267 397.026 195.024 397.076 194.769C397.127 194.514 397.376 194.342 397.634 194.386L400.675 194.901C400.932 194.945 401.1 195.187 401.05 195.442C401 195.697 400.75 195.869 400.492 195.825L397.451 195.31ZM403.942 196.61C403.689 196.547 403.541 196.292 403.611 196.041C403.68 195.79 403.942 195.637 404.195 195.7L407.209 196.449C407.462 196.512 407.61 196.766 407.541 197.018C407.471 197.269 407.209 197.421 406.956 197.359L403.942 196.61ZM409.977 198.348C409.719 198.304 409.551 198.062 409.602 197.807C409.652 197.551 409.901 197.38 410.159 197.423L413.2 197.939C413.458 197.982 413.626 198.225 413.575 198.48C413.525 198.735 413.275 198.907 413.017 198.863L409.977 198.348ZM380.86 185.995C380.607 185.932 380.459 185.678 380.529 185.426C380.599 185.175 380.86 185.023 381.113 185.085L384.127 185.834C384.38 185.897 384.528 186.152 384.459 186.403C384.389 186.654 384.127 186.806 383.874 186.744L380.86 185.995ZM393.386 189.033C393.133 188.97 392.984 188.715 393.054 188.464C393.124 188.213 393.386 188.06 393.639 188.123L396.652 188.872C396.905 188.935 397.053 189.189 396.984 189.44C396.914 189.692 396.652 189.844 396.399 189.781L393.386 189.033ZM386.895 187.733C386.637 187.69 386.469 187.447 386.519 187.192C386.57 186.936 386.819 186.765 387.077 186.809L390.118 187.324C390.376 187.367 390.543 187.61 390.493 187.865C390.443 188.12 390.193 188.292 389.935 188.248L386.895 187.733ZM399.42 190.771C399.162 190.727 398.994 190.485 399.045 190.23C399.095 189.974 399.345 189.803 399.602 189.846L402.644 190.362C402.901 190.405 403.069 190.647 403.019 190.903C402.968 191.158 402.718 191.33 402.461 191.286L399.42 190.771ZM405.911 192.07C405.658 192.008 405.509 191.753 405.579 191.502C405.649 191.251 405.911 191.098 406.164 191.161L409.177 191.909C409.43 191.972 409.578 192.227 409.509 192.478C409.439 192.729 409.178 192.882 408.925 192.819L405.911 192.07ZM411.945 193.809C411.687 193.765 411.519 193.522 411.57 193.267C411.62 193.012 411.87 192.84 412.127 192.884L415.169 193.399C415.426 193.443 415.594 193.685 415.544 193.94C415.494 194.196 415.243 194.367 414.986 194.323L411.945 193.809ZM382.829 181.456C382.576 181.393 382.427 181.138 382.497 180.887C382.567 180.636 382.829 180.483 383.082 180.546L386.095 181.294C386.348 181.357 386.497 181.612 386.427 181.863C386.357 182.115 386.096 182.267 385.842 182.204L382.829 181.456ZM395.354 184.493C395.101 184.431 394.953 184.176 395.023 183.925C395.092 183.674 395.354 183.521 395.607 183.584L398.62 184.332C398.873 184.395 399.022 184.649 398.952 184.901C398.882 185.152 398.621 185.305 398.368 185.242L395.354 184.493ZM388.863 183.194C388.605 183.15 388.438 182.908 388.488 182.652C388.538 182.397 388.788 182.226 389.046 182.269L392.087 182.784C392.344 182.828 392.512 183.07 392.462 183.326C392.412 183.581 392.161 183.752 391.904 183.709L388.863 183.194ZM401.388 186.232C401.131 186.188 400.963 185.945 401.013 185.69C401.063 185.435 401.314 185.263 401.571 185.307L404.612 185.822C404.87 185.866 405.037 186.108 404.987 186.363C404.937 186.619 404.687 186.79 404.429 186.746L401.388 186.232ZM407.88 187.531C407.627 187.468 407.478 187.214 407.548 186.963C407.618 186.711 407.879 186.558 408.132 186.621L411.145 187.37C411.398 187.432 411.547 187.687 411.477 187.938C411.407 188.19 411.146 188.343 410.893 188.28L407.88 187.531ZM413.914 189.269C413.656 189.225 413.488 188.983 413.538 188.728C413.589 188.473 413.839 188.301 414.096 188.345L417.137 188.859C417.395 188.903 417.563 189.146 417.512 189.401C417.462 189.656 417.212 189.828 416.955 189.784L413.914 189.269ZM397.323 179.954C397.07 179.891 396.921 179.637 396.991 179.385C397.061 179.134 397.322 178.981 397.575 179.044L400.589 179.793C400.842 179.855 400.991 180.11 400.921 180.361C400.851 180.612 400.589 180.765 400.336 180.703L397.323 179.954ZM390.831 178.654C390.574 178.61 390.406 178.368 390.456 178.113C390.507 177.858 390.757 177.686 391.014 177.73L394.055 178.245C394.313 178.289 394.481 178.531 394.43 178.786C394.38 179.041 394.13 179.213 393.873 179.169L390.831 178.654ZM403.357 181.692C403.099 181.648 402.932 181.406 402.982 181.151C403.032 180.895 403.282 180.724 403.54 180.768L406.58 181.282C406.838 181.326 407.006 181.569 406.955 181.824C406.905 182.079 406.655 182.251 406.398 182.207L403.357 181.692ZM386.304 177.29L384.798 176.916C384.187 176.765 384.439 175.855 385.05 176.007L386.557 176.381L388.063 176.755C388.674 176.907 388.422 177.817 387.811 177.665L386.304 177.29ZM411.607 182.456C412.218 182.608 411.966 183.517 411.355 183.366L409.848 182.992C409.237 182.84 409.49 181.93 410.101 182.082L411.607 182.456L413.114 182.83C413.725 182.982 413.472 183.892 412.861 183.74L411.355 183.366C410.744 183.214 410.996 182.304 411.607 182.456ZM415.882 184.729C415.625 184.686 415.457 184.444 415.507 184.188C415.557 183.933 415.807 183.761 416.065 183.805L419.105 184.32C419.363 184.364 419.531 184.606 419.481 184.861C419.43 185.117 419.181 185.288 418.923 185.245L415.882 184.729ZM327.007 195.88C326.752 195.827 326.594 195.577 326.655 195.324C326.716 195.071 326.972 194.909 327.228 194.963L330.268 195.607C330.523 195.661 330.681 195.91 330.62 196.164C330.559 196.417 330.303 196.578 330.047 196.524L327.007 195.88ZM328.815 191.28C328.56 191.225 328.402 190.977 328.463 190.723C328.524 190.47 328.781 190.309 329.036 190.363L332.076 191.006C332.331 191.06 332.489 191.31 332.428 191.563C332.367 191.816 332.111 191.978 331.856 191.923L328.815 191.28ZM339.642 198.482C339.387 198.429 339.23 198.179 339.291 197.926C339.352 197.672 339.608 197.511 339.863 197.565L342.903 198.209C343.159 198.263 343.317 198.512 343.256 198.765C343.195 199.019 342.938 199.18 342.683 199.126L339.642 198.482ZM341.451 193.882C341.196 193.827 341.038 193.578 341.099 193.325C341.16 193.072 341.416 192.91 341.671 192.965L344.712 193.608C344.967 193.662 345.125 193.911 345.064 194.165C345.003 194.418 344.746 194.579 344.491 194.525L341.451 193.882ZM333.104 197.408C332.844 197.373 332.668 197.137 332.709 196.88C332.751 196.624 332.994 196.444 333.254 196.479L336.314 196.888C336.573 196.923 336.75 197.159 336.708 197.416C336.667 197.672 336.423 197.853 336.164 197.818L333.104 197.408ZM334.912 192.808C334.653 192.773 334.476 192.537 334.518 192.28C334.559 192.023 334.803 191.843 335.062 191.878L338.122 192.287C338.381 192.322 338.558 192.558 338.517 192.815C338.475 193.072 338.231 193.252 337.972 193.217L334.912 192.808ZM345.739 200.01C345.48 199.975 345.303 199.739 345.345 199.482C345.386 199.226 345.63 199.046 345.889 199.081L348.949 199.49C349.209 199.525 349.385 199.761 349.344 200.018C349.302 200.274 349.059 200.454 348.799 200.42L345.739 200.01ZM347.548 195.409C347.288 195.375 347.112 195.139 347.153 194.882C347.195 194.625 347.438 194.445 347.698 194.48L350.758 194.889C351.017 194.924 351.193 195.16 351.152 195.417C351.11 195.674 350.867 195.854 350.608 195.819L347.548 195.409ZM352.278 201.084C352.023 201.03 351.865 200.781 351.926 200.528C351.987 200.274 352.243 200.113 352.498 200.167L355.539 200.811C355.795 200.865 355.952 201.114 355.891 201.367C355.83 201.621 355.574 201.782 355.318 201.728L352.278 201.084ZM354.086 196.483C353.831 196.429 353.673 196.18 353.734 195.927C353.795 195.674 354.052 195.512 354.307 195.567L357.347 196.21C357.603 196.264 357.761 196.513 357.7 196.767C357.639 197.02 357.382 197.181 357.127 197.127L354.086 196.483ZM358.375 202.612C358.116 202.577 357.939 202.341 357.98 202.084C358.022 201.828 358.266 201.648 358.525 201.683L361.585 202.092C361.844 202.127 362.02 202.363 361.979 202.62C361.937 202.876 361.694 203.056 361.435 203.022L358.375 202.612ZM360.183 198.011C359.924 197.977 359.747 197.74 359.789 197.484C359.83 197.227 360.074 197.047 360.333 197.082L363.393 197.491C363.652 197.526 363.829 197.762 363.787 198.019C363.746 198.275 363.503 198.455 363.243 198.421L360.183 198.011ZM330.624 186.679C330.368 186.625 330.211 186.376 330.271 186.123C330.332 185.869 330.589 185.708 330.844 185.762L333.885 186.406C334.14 186.459 334.297 186.709 334.236 186.962C334.176 187.215 333.919 187.377 333.664 187.323L330.624 186.679ZM343.259 189.281C343.004 189.227 342.846 188.978 342.907 188.724C342.968 188.471 343.224 188.31 343.48 188.364L346.52 189.007C346.775 189.061 346.933 189.311 346.872 189.564C346.811 189.817 346.555 189.979 346.3 189.925L343.259 189.281ZM336.721 188.207C336.461 188.172 336.285 187.936 336.326 187.679C336.368 187.423 336.611 187.242 336.871 187.277L339.93 187.687C340.189 187.721 340.366 187.958 340.325 188.215C340.283 188.471 340.04 188.651 339.78 188.616L336.721 188.207ZM349.356 190.808C349.097 190.774 348.92 190.538 348.962 190.281C349.003 190.025 349.247 189.844 349.506 189.879L352.566 190.289C352.825 190.323 353.002 190.56 352.96 190.817C352.919 191.073 352.675 191.253 352.416 191.218L349.356 190.808ZM355.895 191.883C355.639 191.829 355.482 191.58 355.543 191.326C355.604 191.073 355.86 190.912 356.115 190.965L359.156 191.609C359.411 191.663 359.569 191.913 359.508 192.166C359.447 192.419 359.19 192.581 358.935 192.527L355.895 191.883ZM361.991 193.41C361.732 193.376 361.556 193.14 361.597 192.883C361.639 192.626 361.882 192.446 362.141 192.481L365.201 192.891C365.461 192.925 365.637 193.162 365.596 193.418C365.554 193.675 365.311 193.855 365.052 193.82L361.991 193.41ZM332.432 182.078C332.176 182.024 332.019 181.775 332.08 181.522C332.141 181.269 332.397 181.107 332.653 181.161L335.693 181.805C335.948 181.859 336.106 182.108 336.045 182.361C335.984 182.615 335.728 182.776 335.472 182.722L332.432 182.078ZM345.068 184.68C344.812 184.626 344.655 184.377 344.715 184.124C344.776 183.871 345.033 183.709 345.288 183.763L348.329 184.407C348.584 184.461 348.741 184.71 348.68 184.963C348.62 185.216 348.363 185.378 348.108 185.324L345.068 184.68ZM338.529 183.606C338.27 183.571 338.093 183.335 338.134 183.078C338.176 182.822 338.42 182.642 338.679 182.677L341.738 183.086C341.998 183.121 342.174 183.357 342.133 183.614C342.092 183.87 341.848 184.05 341.588 184.016L338.529 183.606ZM351.165 186.208C350.905 186.173 350.729 185.937 350.77 185.68C350.811 185.423 351.055 185.244 351.314 185.278L354.374 185.688C354.633 185.723 354.81 185.959 354.769 186.215C354.727 186.472 354.483 186.652 354.224 186.617L351.165 186.208ZM357.703 187.282C357.448 187.228 357.29 186.979 357.351 186.726C357.412 186.472 357.668 186.311 357.924 186.365L360.964 187.009C361.219 187.063 361.377 187.312 361.316 187.565C361.255 187.818 360.999 187.98 360.744 187.926L357.703 187.282ZM363.8 188.81C363.541 188.775 363.364 188.539 363.406 188.282C363.447 188.025 363.691 187.846 363.95 187.88L367.009 188.29C367.269 188.325 367.445 188.561 367.404 188.817C367.363 189.074 367.119 189.254 366.86 189.219L363.8 188.81ZM334.24 177.478C333.985 177.424 333.828 177.175 333.888 176.921C333.949 176.668 334.205 176.506 334.461 176.56L337.501 177.204C337.757 177.258 337.914 177.507 337.853 177.761C337.793 178.014 337.536 178.176 337.281 178.122L334.24 177.478ZM346.876 180.08C346.62 180.026 346.463 179.776 346.524 179.523C346.585 179.27 346.841 179.108 347.096 179.162L350.137 179.806C350.392 179.86 350.55 180.109 350.489 180.362C350.428 180.616 350.172 180.777 349.916 180.723L346.876 180.08ZM340.337 179.005C340.078 178.971 339.901 178.734 339.943 178.478C339.984 178.221 340.228 178.041 340.487 178.076L343.547 178.486C343.806 178.52 343.983 178.757 343.941 179.013C343.9 179.27 343.656 179.45 343.397 179.415L340.337 179.005ZM352.973 181.607C352.714 181.572 352.537 181.336 352.578 181.08C352.619 180.823 352.863 180.643 353.123 180.678L356.182 181.087C356.442 181.122 356.618 181.358 356.577 181.615C356.535 181.872 356.292 182.052 356.032 182.017L352.973 181.607ZM359.511 182.682C359.256 182.627 359.098 182.378 359.159 182.125C359.22 181.872 359.476 181.71 359.732 181.764L362.772 182.408C363.028 182.462 363.185 182.711 363.124 182.964C363.063 183.218 362.807 183.379 362.552 183.325L359.511 182.682ZM365.608 184.209C365.349 184.174 365.173 183.938 365.214 183.682C365.255 183.425 365.499 183.245 365.758 183.28L368.818 183.689C369.077 183.724 369.254 183.96 369.212 184.217C369.171 184.474 368.927 184.653 368.668 184.619L365.608 184.209ZM336.048 172.877C335.793 172.823 335.636 172.574 335.697 172.32C335.758 172.067 336.014 171.906 336.269 171.96L339.309 172.604C339.565 172.658 339.723 172.907 339.662 173.16C339.601 173.413 339.344 173.575 339.089 173.521L336.048 172.877ZM348.684 175.479C348.429 175.425 348.271 175.176 348.332 174.922C348.393 174.669 348.649 174.508 348.905 174.562L351.945 175.205C352.201 175.26 352.358 175.509 352.297 175.762C352.236 176.015 351.98 176.177 351.724 176.122L348.684 175.479ZM342.145 174.405C341.886 174.37 341.71 174.134 341.751 173.877C341.792 173.62 342.036 173.441 342.295 173.475L345.355 173.885C345.615 173.92 345.791 174.156 345.75 174.412C345.708 174.669 345.465 174.849 345.205 174.814L342.145 174.405ZM354.781 177.007C354.522 176.972 354.345 176.736 354.386 176.479C354.428 176.222 354.672 176.043 354.931 176.077L357.991 176.487C358.25 176.522 358.426 176.757 358.385 177.014C358.344 177.271 358.1 177.451 357.841 177.416L354.781 177.007ZM361.319 178.081C361.064 178.027 360.907 177.777 360.968 177.524C361.029 177.271 361.285 177.109 361.54 177.164L364.581 177.807C364.836 177.861 364.994 178.11 364.933 178.364C364.872 178.617 364.616 178.778 364.36 178.724L361.319 178.081ZM367.417 179.608C367.157 179.574 366.981 179.337 367.022 179.081C367.063 178.824 367.307 178.644 367.566 178.679L370.626 179.089C370.885 179.123 371.062 179.359 371.02 179.616C370.979 179.873 370.735 180.053 370.476 180.018L367.417 179.608ZM350.492 170.878C350.237 170.824 350.079 170.575 350.14 170.322C350.201 170.068 350.458 169.907 350.713 169.961L353.753 170.605C354.009 170.659 354.167 170.908 354.106 171.161C354.045 171.415 353.788 171.576 353.533 171.522L350.492 170.878ZM343.954 169.804C343.694 169.769 343.518 169.533 343.559 169.276C343.601 169.02 343.844 168.84 344.103 168.875L347.164 169.284C347.423 169.319 347.6 169.555 347.558 169.812C347.516 170.068 347.273 170.248 347.014 170.214L343.954 169.804ZM356.589 172.406C356.33 172.371 356.153 172.135 356.195 171.878C356.236 171.622 356.48 171.442 356.739 171.477L359.799 171.886C360.058 171.92 360.235 172.157 360.193 172.414C360.152 172.67 359.909 172.85 359.649 172.816L356.589 172.406ZM339.377 168.598L337.857 168.276C337.24 168.146 337.461 167.229 338.077 167.359L339.598 167.681L341.118 168.003C341.735 168.133 341.514 169.05 340.897 168.92L339.377 168.598ZM364.869 172.885C365.485 173.015 365.265 173.932 364.648 173.802L363.128 173.48C362.511 173.349 362.732 172.432 363.348 172.563L364.869 172.885L366.389 173.207C367.005 173.337 366.785 174.254 366.168 174.124L364.648 173.802C364.032 173.671 364.252 172.754 364.869 172.885ZM369.225 175.008C368.966 174.973 368.789 174.737 368.83 174.48C368.872 174.224 369.115 174.043 369.375 174.078L372.435 174.488C372.694 174.522 372.87 174.759 372.829 175.016C372.787 175.272 372.544 175.452 372.285 175.418L369.225 175.008ZM288.173 189.751C287.917 189.701 287.754 189.455 287.811 189.201C287.867 188.946 288.121 188.781 288.377 188.83L291.43 189.421C291.686 189.471 291.849 189.717 291.792 189.972C291.736 190.225 291.482 190.391 291.225 190.342L288.173 189.751ZM289.9 185.122C289.644 185.072 289.482 184.826 289.538 184.571C289.595 184.318 289.849 184.152 290.105 184.201L293.157 184.792C293.414 184.842 293.576 185.088 293.519 185.342C293.463 185.597 293.209 185.762 292.953 185.713L289.9 185.122ZM300.858 192.134C300.602 192.084 300.439 191.838 300.496 191.583C300.552 191.33 300.806 191.164 301.062 191.213L304.115 191.804C304.371 191.854 304.533 192.1 304.477 192.354C304.421 192.609 304.167 192.774 303.91 192.724L300.858 192.134ZM302.585 187.504C302.329 187.455 302.167 187.208 302.223 186.954C302.28 186.7 302.533 186.534 302.79 186.584L305.842 187.175C306.099 187.224 306.261 187.471 306.204 187.725C306.148 187.979 305.894 188.145 305.638 188.095L302.585 187.504ZM294.298 191.173C294.039 191.142 293.858 190.909 293.895 190.652C293.931 190.395 294.172 190.211 294.432 190.241L297.5 190.598C297.76 190.628 297.94 190.861 297.904 191.118C297.867 191.375 297.626 191.559 297.366 191.529L294.298 191.173ZM296.026 186.544C295.766 186.513 295.585 186.28 295.622 186.023C295.659 185.766 295.899 185.582 296.159 185.612L299.227 185.969C299.487 185.999 299.668 186.232 299.631 186.489C299.594 186.746 299.354 186.93 299.094 186.9L296.026 186.544ZM306.983 193.555C306.724 193.525 306.543 193.292 306.579 193.035C306.616 192.778 306.857 192.593 307.117 192.624L310.185 192.981C310.445 193.011 310.625 193.244 310.589 193.501C310.552 193.758 310.311 193.942 310.051 193.912L306.983 193.555ZM308.711 188.926C308.451 188.896 308.27 188.663 308.307 188.406C308.344 188.148 308.584 187.964 308.844 187.995L311.912 188.351C312.172 188.381 312.353 188.615 312.316 188.872C312.279 189.129 312.039 189.313 311.779 189.283L308.711 188.926ZM313.543 194.516C313.287 194.467 313.124 194.22 313.181 193.966C313.237 193.712 313.491 193.546 313.747 193.596L316.8 194.187C317.056 194.236 317.218 194.483 317.162 194.737C317.106 194.991 316.852 195.157 316.595 195.107L313.543 194.516ZM315.27 189.887C315.014 189.837 314.852 189.591 314.908 189.337C314.965 189.083 315.218 188.917 315.475 188.967L318.527 189.557C318.784 189.607 318.946 189.853 318.889 190.108C318.833 190.362 318.579 190.528 318.323 190.478L315.27 189.887ZM319.668 195.938C319.408 195.908 319.228 195.675 319.264 195.418C319.301 195.16 319.542 194.976 319.802 195.007L322.87 195.363C323.129 195.393 323.31 195.627 323.274 195.884C323.237 196.141 322.996 196.325 322.736 196.295L319.668 195.938ZM321.395 191.309C321.136 191.278 320.955 191.046 320.992 190.789C321.029 190.531 321.269 190.347 321.529 190.377L324.597 190.734C324.857 190.764 325.038 190.997 325.001 191.254C324.964 191.512 324.723 191.696 324.464 191.666L321.395 191.309ZM291.628 180.492C291.372 180.443 291.209 180.196 291.266 179.942C291.322 179.688 291.576 179.522 291.832 179.572L294.885 180.163C295.141 180.212 295.303 180.459 295.247 180.713C295.19 180.967 294.937 181.133 294.68 181.083L291.628 180.492ZM304.313 182.875C304.056 182.826 303.894 182.579 303.951 182.325C304.007 182.071 304.261 181.905 304.517 181.955L307.57 182.546C307.826 182.595 307.988 182.841 307.932 183.096C307.875 183.35 307.622 183.516 307.365 183.466L304.313 182.875ZM297.753 181.914C297.493 181.884 297.313 181.651 297.349 181.394C297.386 181.136 297.627 180.952 297.887 180.983L300.955 181.339C301.214 181.369 301.395 181.603 301.359 181.86C301.322 182.117 301.081 182.301 300.821 182.271L297.753 181.914ZM310.438 184.297C310.178 184.266 309.998 184.034 310.034 183.777C310.071 183.519 310.312 183.335 310.572 183.365L313.64 183.722C313.899 183.752 314.08 183.985 314.044 184.242C314.007 184.5 313.766 184.684 313.506 184.654L310.438 184.297ZM316.998 185.258C316.741 185.208 316.579 184.962 316.636 184.708C316.692 184.454 316.946 184.288 317.202 184.337L320.255 184.928C320.511 184.978 320.673 185.224 320.617 185.478C320.56 185.733 320.307 185.899 320.05 185.849L316.998 185.258ZM323.123 186.68C322.863 186.649 322.683 186.416 322.719 186.159C322.756 185.902 322.996 185.718 323.257 185.748L326.324 186.105C326.584 186.135 326.765 186.368 326.729 186.625C326.692 186.883 326.451 187.067 326.191 187.036L323.123 186.68ZM293.355 175.863C293.099 175.814 292.937 175.567 292.993 175.313C293.05 175.059 293.303 174.893 293.559 174.943L296.612 175.534C296.869 175.583 297.031 175.83 296.974 176.084C296.918 176.338 296.664 176.504 296.408 176.454L293.355 175.863ZM306.04 178.246C305.784 178.196 305.622 177.95 305.678 177.696C305.735 177.442 305.988 177.276 306.244 177.325L309.297 177.916C309.554 177.966 309.715 178.212 309.659 178.466C309.603 178.721 309.349 178.887 309.093 178.837L306.04 178.246ZM299.48 177.285C299.221 177.255 299.04 177.022 299.077 176.765C299.114 176.507 299.354 176.323 299.614 176.353L302.682 176.71C302.942 176.74 303.123 176.974 303.086 177.231C303.049 177.488 302.808 177.672 302.549 177.642L299.48 177.285ZM312.165 179.668C311.906 179.637 311.725 179.404 311.762 179.147C311.799 178.89 312.039 178.706 312.299 178.736L315.367 179.093C315.627 179.123 315.808 179.356 315.771 179.613C315.734 179.871 315.493 180.055 315.234 180.024L312.165 179.668ZM318.725 180.629C318.469 180.579 318.307 180.333 318.363 180.079C318.42 179.824 318.673 179.659 318.929 179.708L321.982 180.299C322.239 180.349 322.4 180.595 322.344 180.849C322.288 181.104 322.034 181.269 321.778 181.22L318.725 180.629ZM324.85 182.05C324.59 182.02 324.41 181.787 324.447 181.53C324.484 181.273 324.724 181.089 324.984 181.119L328.052 181.476C328.312 181.506 328.493 181.739 328.456 181.996C328.419 182.253 328.178 182.438 327.918 182.407L324.85 182.05ZM295.082 171.234C294.826 171.184 294.664 170.938 294.721 170.684C294.777 170.43 295.031 170.264 295.287 170.313L298.34 170.904C298.596 170.954 298.758 171.2 298.701 171.455C298.645 171.709 298.392 171.875 298.135 171.825L295.082 171.234ZM307.767 173.617C307.511 173.567 307.349 173.321 307.406 173.067C307.462 172.812 307.715 172.647 307.972 172.696L311.025 173.287C311.281 173.337 311.443 173.583 311.386 173.837C311.33 174.092 311.077 174.257 310.82 174.208L307.767 173.617ZM301.208 172.656C300.948 172.625 300.768 172.392 300.804 172.135C300.841 171.878 301.081 171.694 301.342 171.724L304.409 172.081C304.669 172.111 304.85 172.344 304.813 172.601C304.776 172.859 304.536 173.043 304.276 173.012L301.208 172.656ZM313.893 175.038C313.633 175.008 313.452 174.775 313.489 174.518C313.526 174.261 313.766 174.077 314.027 174.107L317.094 174.464C317.354 174.494 317.535 174.727 317.498 174.984C317.461 175.241 317.221 175.426 316.961 175.395L313.893 175.038ZM320.452 176C320.196 175.95 320.034 175.704 320.091 175.449C320.147 175.195 320.4 175.029 320.657 175.079L323.71 175.67C323.966 175.72 324.128 175.966 324.071 176.22C324.015 176.474 323.761 176.64 323.505 176.591L320.452 176ZM326.578 177.421C326.318 177.391 326.137 177.158 326.174 176.901C326.211 176.644 326.451 176.46 326.711 176.49L329.779 176.846C330.039 176.877 330.22 177.11 330.183 177.367C330.146 177.624 329.905 177.808 329.646 177.778L326.578 177.421ZM296.81 166.605C296.554 166.555 296.391 166.309 296.448 166.055C296.504 165.8 296.758 165.635 297.014 165.684L300.067 166.275C300.323 166.325 300.485 166.571 300.429 166.825C300.372 167.08 300.119 167.245 299.863 167.196L296.81 166.605ZM309.495 168.988C309.238 168.938 309.076 168.692 309.133 168.437C309.189 168.183 309.443 168.017 309.699 168.067L312.752 168.658C313.008 168.708 313.17 168.954 313.114 169.208C313.057 169.462 312.804 169.628 312.548 169.579L309.495 168.988ZM302.935 168.026C302.675 167.997 302.495 167.763 302.532 167.506C302.568 167.249 302.809 167.065 303.069 167.095L306.137 167.452C306.396 167.482 306.578 167.715 306.541 167.972C306.504 168.229 306.263 168.414 306.003 168.383L302.935 168.026ZM315.62 170.409C315.36 170.379 315.18 170.146 315.217 169.889C315.253 169.632 315.494 169.448 315.754 169.478L318.822 169.834C319.081 169.865 319.263 170.098 319.226 170.355C319.189 170.612 318.948 170.796 318.688 170.766L315.62 170.409ZM322.18 171.37C321.923 171.32 321.761 171.074 321.818 170.82C321.874 170.566 322.128 170.4 322.384 170.45L325.437 171.041C325.693 171.09 325.855 171.337 325.799 171.591C325.742 171.845 325.489 172.011 325.232 171.961L322.18 171.37ZM328.305 172.792C328.045 172.762 327.865 172.529 327.902 172.271C327.938 172.014 328.179 171.83 328.439 171.86L331.506 172.217C331.766 172.247 331.948 172.48 331.911 172.738C331.874 172.995 331.633 173.179 331.373 173.149L328.305 172.792ZM311.222 164.358C310.966 164.308 310.804 164.062 310.86 163.808C310.917 163.554 311.17 163.388 311.426 163.438L314.479 164.029C314.736 164.078 314.897 164.325 314.841 164.579C314.785 164.833 314.531 164.999 314.275 164.949L311.222 164.358ZM304.663 163.397C304.403 163.367 304.222 163.134 304.259 162.877C304.296 162.62 304.536 162.436 304.796 162.466L307.864 162.822C308.124 162.853 308.305 163.086 308.268 163.343C308.231 163.6 307.99 163.784 307.731 163.754L304.663 163.397ZM317.348 165.78C317.088 165.75 316.907 165.517 316.944 165.259C316.981 165.002 317.221 164.818 317.481 164.848L320.549 165.205C320.809 165.235 320.99 165.468 320.953 165.726C320.916 165.983 320.675 166.167 320.416 166.137L317.348 165.78ZM300.063 162.271L298.537 161.976C297.918 161.856 298.123 160.935 298.741 161.055L300.268 161.35L301.794 161.646C302.413 161.766 302.209 162.686 301.59 162.567L300.063 162.271ZM325.638 166.116C326.257 166.236 326.052 167.156 325.433 167.037L323.907 166.741C323.288 166.621 323.492 165.7 324.111 165.821L325.638 166.116L327.164 166.412C327.783 166.531 327.579 167.452 326.96 167.332L325.433 167.037C324.815 166.917 325.019 165.996 325.638 166.116ZM330.033 168.163C329.773 168.133 329.592 167.9 329.629 167.642C329.666 167.385 329.906 167.201 330.166 167.231L333.234 167.588C333.494 167.618 333.675 167.851 333.638 168.109C333.601 168.366 333.36 168.55 333.1 168.519L330.033 168.163ZM321.388 242.715C321.323 242.967 321.064 243.124 320.81 243.066C320.555 243.008 320.402 242.756 320.468 242.503L321.246 239.499C321.311 239.246 321.57 239.089 321.825 239.148C322.079 239.206 322.232 239.458 322.167 239.711L321.388 242.715ZM316.8 240.96C316.734 241.213 316.475 241.37 316.221 241.311C315.967 241.253 315.813 241.001 315.879 240.748L316.657 237.744C316.723 237.492 316.982 237.335 317.236 237.393C317.49 237.451 317.643 237.703 317.578 237.956L316.8 240.96ZM324.549 230.229C324.483 230.482 324.224 230.639 323.97 230.581C323.716 230.522 323.562 230.27 323.628 230.018L324.406 227.013C324.472 226.761 324.731 226.604 324.985 226.662C325.239 226.721 325.392 226.973 325.327 227.225L324.549 230.229ZM319.96 228.475C319.894 228.727 319.635 228.884 319.381 228.826C319.127 228.767 318.974 228.515 319.039 228.263L319.818 225.259C319.883 225.007 320.142 224.849 320.396 224.908C320.65 224.966 320.804 225.218 320.738 225.47L319.96 228.475ZM323.189 236.689C323.143 236.944 322.896 237.12 322.638 237.081C322.379 237.042 322.207 236.803 322.253 236.547L322.795 233.525C322.841 233.269 323.088 233.093 323.346 233.132C323.605 233.171 323.777 233.411 323.731 233.667L323.189 236.689ZM318.6 234.934C318.554 235.19 318.307 235.366 318.049 235.326C317.791 235.288 317.619 235.048 317.664 234.792L318.206 231.77C318.252 231.514 318.499 231.338 318.757 231.377C319.016 231.417 319.188 231.656 319.142 231.912L318.6 234.934ZM326.349 224.203C326.303 224.46 326.057 224.635 325.798 224.596C325.54 224.557 325.368 224.318 325.414 224.061L325.955 221.04C326.001 220.783 326.248 220.608 326.506 220.647C326.765 220.686 326.937 220.926 326.891 221.181L326.349 224.203ZM321.761 222.449C321.715 222.705 321.468 222.881 321.21 222.841C320.951 222.802 320.779 222.563 320.825 222.307L321.367 219.285C321.413 219.029 321.659 218.853 321.917 218.892C322.176 218.931 322.348 219.171 322.302 219.427L321.761 222.449ZM327.709 217.744C327.643 217.996 327.384 218.154 327.13 218.095C326.876 218.037 326.723 217.785 326.788 217.533L327.566 214.528C327.632 214.276 327.891 214.119 328.145 214.177C328.399 214.236 328.553 214.488 328.487 214.74L327.709 217.744ZM323.12 215.99C323.055 216.242 322.796 216.399 322.542 216.341C322.287 216.282 322.134 216.03 322.199 215.778L322.978 212.774C323.043 212.521 323.302 212.364 323.556 212.422C323.811 212.481 323.964 212.733 323.898 212.985L323.12 215.99ZM329.51 211.718C329.464 211.974 329.217 212.15 328.958 212.111C328.7 212.071 328.528 211.832 328.573 211.576L329.115 208.554C329.161 208.298 329.408 208.122 329.667 208.162C329.925 208.201 330.097 208.44 330.052 208.696L329.51 211.718ZM324.921 209.964C324.875 210.219 324.628 210.395 324.37 210.356C324.111 210.317 323.939 210.078 323.985 209.822L324.527 206.799C324.572 206.544 324.819 206.368 325.078 206.407C325.336 206.446 325.509 206.685 325.463 206.941L324.921 209.964ZM312.211 239.206C312.145 239.458 311.886 239.615 311.632 239.556C311.378 239.498 311.225 239.246 311.29 238.994L312.069 235.989C312.134 235.737 312.393 235.58 312.647 235.639C312.901 235.697 313.054 235.949 312.989 236.201L312.211 239.206ZM315.371 226.72C315.305 226.973 315.046 227.13 314.792 227.071C314.538 227.013 314.385 226.761 314.45 226.509L315.229 223.504C315.294 223.252 315.553 223.095 315.807 223.153C316.062 223.212 316.215 223.464 316.149 223.716L315.371 226.72ZM314.011 233.179C313.966 233.436 313.719 233.611 313.461 233.572C313.202 233.533 313.03 233.294 313.076 233.038L313.618 230.016C313.663 229.759 313.91 229.584 314.168 229.623C314.427 229.662 314.599 229.901 314.553 230.158L314.011 233.179ZM317.172 220.694C317.126 220.95 316.879 221.126 316.621 221.087C316.362 221.048 316.19 220.808 316.236 220.552L316.778 217.53C316.824 217.274 317.071 217.099 317.329 217.138C317.587 217.177 317.759 217.416 317.714 217.672L317.172 220.694ZM318.531 214.235C318.466 214.487 318.207 214.645 317.953 214.586C317.698 214.527 317.545 214.276 317.611 214.023L318.389 211.019C318.455 210.766 318.714 210.609 318.968 210.668C319.222 210.726 319.375 210.978 319.309 211.231L318.531 214.235ZM320.332 208.209C320.286 208.465 320.039 208.641 319.781 208.601C319.523 208.562 319.35 208.323 319.396 208.067L319.938 205.045C319.984 204.789 320.23 204.613 320.489 204.652C320.748 204.692 320.92 204.931 320.874 205.187L320.332 208.209ZM307.622 237.451C307.556 237.703 307.298 237.86 307.043 237.802C306.789 237.744 306.636 237.492 306.701 237.239L307.48 234.235C307.545 233.983 307.804 233.825 308.058 233.884C308.312 233.943 308.466 234.194 308.4 234.447L307.622 237.451ZM310.782 224.966C310.717 225.218 310.458 225.375 310.204 225.317C309.949 225.258 309.796 225.006 309.861 224.754L310.64 221.75C310.705 221.497 310.964 221.34 311.218 221.398C311.473 221.457 311.626 221.709 311.561 221.961L310.782 224.966ZM309.423 231.425C309.377 231.681 309.13 231.856 308.872 231.818C308.613 231.778 308.441 231.539 308.487 231.283L309.029 228.261C309.075 228.005 309.321 227.829 309.58 227.868C309.838 227.907 310.01 228.147 309.964 228.403L309.423 231.425ZM312.583 218.94C312.537 219.196 312.29 219.371 312.032 219.332C311.773 219.293 311.601 219.054 311.647 218.798L312.189 215.776C312.235 215.52 312.482 215.344 312.74 215.383C312.999 215.422 313.171 215.662 313.125 215.917L312.583 218.94ZM313.942 212.48C313.877 212.733 313.618 212.89 313.364 212.831C313.11 212.773 312.956 212.521 313.022 212.269L313.8 209.264C313.866 209.012 314.125 208.855 314.379 208.913C314.633 208.972 314.786 209.224 314.721 209.476L313.942 212.48ZM315.743 206.454C315.697 206.71 315.451 206.886 315.192 206.847C314.934 206.807 314.761 206.568 314.807 206.312L315.349 203.29C315.395 203.034 315.642 202.858 315.9 202.898C316.159 202.937 316.331 203.176 316.285 203.432L315.743 206.454ZM303.033 235.696C302.968 235.949 302.709 236.106 302.455 236.048C302.2 235.989 302.047 235.737 302.113 235.485L302.891 232.48C302.956 232.228 303.215 232.071 303.47 232.129C303.724 232.188 303.877 232.44 303.812 232.692L303.033 235.696ZM306.194 223.211C306.128 223.463 305.869 223.621 305.615 223.562C305.361 223.503 305.207 223.251 305.273 222.999L306.051 219.995C306.117 219.743 306.376 219.586 306.63 219.644C306.884 219.702 307.037 219.954 306.972 220.206L306.194 223.211ZM304.834 229.67C304.788 229.926 304.541 230.102 304.283 230.063C304.024 230.024 303.852 229.784 303.898 229.528L304.44 226.506C304.486 226.25 304.733 226.075 304.991 226.114C305.249 226.153 305.422 226.392 305.376 226.648L304.834 229.67ZM307.994 217.185C307.948 217.441 307.701 217.617 307.443 217.578C307.185 217.538 307.013 217.299 307.058 217.043L307.6 214.021C307.646 213.765 307.893 213.589 308.151 213.628C308.41 213.668 308.582 213.907 308.536 214.163L307.994 217.185ZM309.354 210.726C309.288 210.978 309.029 211.135 308.775 211.077C308.521 211.018 308.368 210.766 308.433 210.514L309.211 207.51C309.277 207.257 309.536 207.1 309.79 207.159C310.044 207.217 310.198 207.469 310.132 207.721L309.354 210.726ZM311.155 204.7C311.109 204.955 310.862 205.131 310.603 205.092C310.345 205.053 310.172 204.814 310.218 204.558L310.76 201.536C310.806 201.28 311.053 201.104 311.312 201.143C311.57 201.182 311.742 201.422 311.696 201.678L311.155 204.7ZM298.445 233.942C298.379 234.194 298.12 234.351 297.866 234.293C297.611 234.234 297.458 233.982 297.524 233.73L298.302 230.725C298.367 230.473 298.627 230.316 298.881 230.375C299.135 230.433 299.288 230.685 299.223 230.937L298.445 233.942ZM301.605 221.457C301.539 221.709 301.28 221.866 301.026 221.807C300.772 221.749 300.619 221.497 300.684 221.245L301.463 218.24C301.528 217.988 301.787 217.831 302.041 217.889C302.295 217.948 302.448 218.2 302.383 218.452L301.605 221.457ZM300.245 227.915C300.199 228.172 299.952 228.348 299.694 228.308C299.436 228.269 299.263 228.03 299.309 227.774L299.851 224.752C299.897 224.496 300.144 224.32 300.402 224.359C300.661 224.398 300.833 224.638 300.787 224.894L300.245 227.915ZM303.405 215.43C303.36 215.686 303.113 215.862 302.855 215.823C302.596 215.784 302.424 215.544 302.47 215.289L303.012 212.266C303.057 212.01 303.304 211.835 303.562 211.874C303.821 211.913 303.993 212.152 303.947 212.408L303.405 215.43ZM304.765 208.971C304.7 209.224 304.44 209.381 304.187 209.322C303.932 209.264 303.779 209.012 303.844 208.759L304.622 205.755C304.688 205.502 304.947 205.346 305.201 205.404C305.456 205.462 305.609 205.714 305.543 205.967L304.765 208.971ZM306.566 202.945C306.52 203.201 306.273 203.377 306.014 203.337C305.756 203.299 305.584 203.059 305.63 202.803L306.171 199.781C306.217 199.525 306.464 199.349 306.723 199.388C306.981 199.428 307.154 199.667 307.108 199.923L306.566 202.945ZM297.016 219.702C296.95 219.954 296.691 220.111 296.437 220.053C296.183 219.994 296.03 219.743 296.095 219.49L296.874 216.486C296.939 216.233 297.198 216.076 297.452 216.135C297.706 216.193 297.86 216.445 297.794 216.698L297.016 219.702ZM295.656 226.161C295.61 226.417 295.364 226.593 295.105 226.554C294.847 226.514 294.675 226.275 294.721 226.019L295.262 222.997C295.308 222.741 295.555 222.565 295.813 222.605C296.072 222.644 296.244 222.883 296.198 223.139L295.656 226.161ZM298.817 213.676C298.771 213.932 298.524 214.107 298.266 214.068C298.007 214.029 297.835 213.79 297.881 213.534L298.423 210.512C298.469 210.256 298.715 210.08 298.974 210.119C299.232 210.158 299.404 210.398 299.358 210.653L298.817 213.676ZM294.245 230.685L293.856 232.187C293.698 232.796 292.777 232.585 292.935 231.976L293.324 230.473L293.713 228.971C293.871 228.362 294.792 228.574 294.634 229.183L294.245 230.685ZM299.645 205.502C299.802 204.893 300.723 205.105 300.565 205.714L300.176 207.216C300.019 207.825 299.098 207.614 299.255 207.005L299.645 205.502L300.034 204C300.192 203.391 301.112 203.603 300.954 204.212L300.565 205.714C300.408 206.323 299.487 206.112 299.645 205.502ZM301.977 201.19C301.931 201.447 301.684 201.622 301.426 201.583C301.168 201.544 300.995 201.305 301.041 201.048L301.583 198.027C301.629 197.77 301.875 197.594 302.134 197.634C302.393 197.673 302.565 197.912 302.519 198.168L301.977 201.19Z" fill="#002D6F"/>
</g>
<path d="M429.614 246.27C394.263 240.012 380.351 220.68 385.582 190.899C390.791 161.246 410.428 147.984 445.779 154.242C481.006 160.476 495.044 179.83 489.857 209.357C484.647 239.01 464.839 252.505 429.614 246.27ZM432.985 227.079C453.281 230.672 464.311 222.17 467.264 205.357C470.195 188.672 462.704 177.025 442.409 173.432C422.113 169.84 411.128 178.085 408.175 194.898C405.199 211.839 412.69 223.486 432.985 227.079Z" fill="#56AAFF"/>
<path d="M429.614 246.27C394.263 240.012 380.351 220.68 385.582 190.899C390.791 161.246 410.428 147.984 445.779 154.242C481.006 160.476 495.044 179.83 489.857 209.357C484.647 239.01 464.839 252.505 429.614 246.27ZM432.985 227.079C453.281 230.672 464.311 222.17 467.264 205.357C470.195 188.672 462.704 177.025 442.409 173.432C422.113 169.84 411.128 178.085 408.175 194.898C405.199 211.839 412.69 223.486 432.985 227.079Z" fill="#6383FA"/>
<path d="M396.025 166.57C402.278 169.467 411.761 173.474 419.315 176.412C413.413 180.082 409.792 186.423 408.28 194.998C405.3 211.902 412.828 223.529 433.214 227.124C453.6 230.718 464.674 222.24 467.632 205.464C469.952 192.305 465.735 182.283 453.8 176.886L470.579 162.58C487.749 172.167 494.08 188.166 490.326 209.466C485.11 239.054 465.219 252.511 429.838 246.273C394.329 240.012 380.347 220.714 385.587 190.997C387.365 180.913 390.827 172.73 396.025 166.57Z" fill="#6383FA"/>
<path fill-rule="evenodd" clip-rule="evenodd" d="M443.586 136.49C442.394 135.476 441.554 134.039 441.319 132.368C440.81 128.747 443.332 125.4 446.953 124.891C450.573 124.383 453.92 126.905 454.429 130.525C454.938 134.145 452.416 137.493 448.795 138.001C448.403 138.057 448.013 138.076 447.63 138.063C455.099 141.463 458.017 146.114 456.385 152.015C454.336 159.422 454.336 165.017 456.385 168.8L417.141 161.235C419.435 158.138 420.854 155.774 421.396 154.142C424.079 146.067 424.106 140.667 424.469 140.667C424.942 140.667 430.458 139.012 441.018 135.702C441.912 135.954 442.768 136.216 443.586 136.49Z" fill="#002D6F"/>
<path d="M454.347 152.01C454.305 144.477 448.926 137.644 441.147 135.939L438.808 135.426C429.896 133.472 421.208 138.986 419.404 147.743L418.41 152.569C417.155 158.66 421.163 164.7 427.363 166.059L433.257 167.352L430.048 182.98C431.84 184.945 434.569 186.259 438.234 186.923C441.898 187.588 444.98 187.23 447.479 185.85L453.056 158.396C453.471 157.428 453.795 156.404 454.016 155.332C454.244 154.229 454.351 153.128 454.347 152.04L454.353 152.009L454.347 152.01Z" fill="#FF9C99"/>
<mask id="mask2_103_4135" style="mask-type:alpha" maskUnits="userSpaceOnUse" x="418" y="134" width="37" height="54">
<path d="M454.307 151.913C454.296 144.367 448.964 137.544 441.221 135.868L438.894 135.364C430.023 133.445 421.346 139.006 419.513 147.786L418.503 152.624C417.228 158.732 421.197 164.767 427.368 166.102L433.235 167.372L429.975 183.041C431.753 185.002 434.466 186.308 438.114 186.958C441.762 187.608 444.834 187.236 447.329 185.844L452.995 158.316C453.413 157.345 453.74 156.318 453.964 155.242C454.195 154.137 454.307 153.032 454.307 151.943L454.313 151.912L454.307 151.913Z" fill="#FF9C99"/>
</mask>
<g mask="url(#mask2_103_4135)">
<path fill-rule="evenodd" clip-rule="evenodd" d="M432.816 167.289L441.834 167.106L431.882 170.111L432.816 167.289ZM420.176 144.866C422.028 140.325 424.166 137.172 426.59 135.408C429.014 133.643 433.539 131.945 440.167 130.312L459.798 143.602L452.961 162.223L451.332 167.867L449.294 158.597L439.68 149.089L432.728 147.584L433.29 144.893L428.672 146.706L420.176 144.866Z" fill="#002D6F"/>
</g>
<path d="M371.237 296.137L363.568 322.883L338.865 315.8L333.113 335.859L301.354 326.752L307.106 306.693L219.942 281.699L227.612 254.953L336.673 203.58L368.433 212.687L346.535 289.054L371.237 296.137ZM262.157 264.849L314.88 279.967L327.783 234.971L262.157 264.849Z" fill="#6383FA"/>
<mask id="mask3_103_4135" style="mask-type:alpha" maskUnits="userSpaceOnUse" x="219" y="203" width="153" height="133">
<path d="M371.237 296.137L363.568 322.883L338.865 315.8L333.113 335.859L301.354 326.752L307.106 306.693L219.942 281.699L227.612 254.953L336.673 203.58L368.433 212.687L346.535 289.054L371.237 296.137ZM262.157 264.849L314.88 279.967L327.783 234.971L262.157 264.849Z" fill="#6383FA"/>
</mask>
<g mask="url(#mask3_103_4135)">
<path fill-rule="evenodd" clip-rule="evenodd" d="M286.64 274.949L290.423 312.539L281.676 334.998L297.043 343.746L322.102 365.496L327.54 361.004C331.431 356.884 333.637 353.496 334.159 350.838C334.681 348.18 343.114 348.18 359.456 350.838L327.54 263.602L286.64 274.949Z" fill="#002D6F"/>
</g>
<path d="M629.544 279.134L644.291 302.73L622.499 316.348L633.553 334.045L605.534 351.553L594.479 333.856L517.579 381.907L502.836 358.311L537.636 242.888L565.656 225.379L607.751 292.752L629.544 279.134ZM533.305 339.261L579.817 310.196L555.012 270.499L533.305 339.261Z" fill="#6383FA"/>
<mask id="mask4_103_4135" style="mask-type:alpha" maskUnits="userSpaceOnUse" x="502" y="225" width="143" height="157">
<path d="M629.544 279.134L644.291 302.73L622.499 316.347L633.553 334.044L605.534 351.553L594.479 333.856L517.579 381.906L502.836 358.31L537.636 242.887L565.656 225.379L607.751 292.751L629.544 279.134ZM533.305 339.26L579.817 310.195L555.012 270.498L533.305 339.26Z" fill="#56AAFF"/>
</mask>
<g mask="url(#mask4_103_4135)">
<path fill-rule="evenodd" clip-rule="evenodd" d="M516.907 326.96C516.279 326.96 512.416 340.435 505.323 367.386L517.853 386.299L561.117 367.623L554.261 323.65C529.991 325.857 517.536 326.96 516.907 326.96Z" fill="#002D6F"/>
</g>
<path fill-rule="evenodd" clip-rule="evenodd" d="M428.725 146.813L417.613 144.449C423.129 135.623 430.616 132.629 440.073 135.466C448.064 137.863 441.772 137.627 430.852 141.376C429.518 141.834 428.809 143.646 428.725 146.813Z" fill="#002D6F"/>
<path d="M421.564 150.534C421.61 150.764 421.632 151.026 421.632 151.305C421.632 152.218 421.385 152.96 420.923 152.96C420.461 152.96 420.214 152.218 420.214 151.305C420.214 150.864 420.271 150.463 420.384 150.166C419.249 149.901 418.272 149.921 417.392 150.22C417.145 150.304 416.876 150.172 416.792 149.925C416.708 149.678 416.84 149.409 417.087 149.325C418.422 148.871 419.905 148.952 421.643 149.548C422.479 149.835 423.444 150.554 424.562 151.703C424.744 151.89 424.74 152.189 424.553 152.372C424.366 152.554 424.067 152.549 423.884 152.363C422.974 151.427 422.195 150.818 421.564 150.534ZM434.761 153.658C434.834 153.929 434.871 154.259 434.871 154.615C434.871 155.528 434.624 156.27 434.162 156.27C433.7 156.27 433.453 155.528 433.453 154.615C433.453 154.128 433.523 153.689 433.659 153.386C432.708 153.22 431.869 153.269 431.104 153.53C430.857 153.614 430.588 153.482 430.504 153.235C430.42 152.988 430.552 152.719 430.799 152.635C432.134 152.181 433.617 152.262 435.355 152.858C436.191 153.145 437.156 153.864 438.274 155.013C438.456 155.2 438.452 155.499 438.265 155.681C438.078 155.863 437.779 155.859 437.596 155.672C436.573 154.621 435.715 153.982 435.048 153.752C434.951 153.719 434.855 153.688 434.761 153.658ZM428.654 152.263L425.939 156.649L427.635 156.988C427.892 157.039 428.057 157.288 428.006 157.544C427.955 157.801 427.706 157.966 427.45 157.915L425.086 157.443C424.762 157.378 424.603 157.01 424.777 156.73L427.85 151.765C427.987 151.543 428.279 151.475 428.501 151.612C428.723 151.75 428.791 152.041 428.654 152.263ZM424.515 160.523C424.255 160.548 424.024 160.358 423.999 160.098C423.974 159.838 424.164 159.607 424.424 159.582L431.753 158.872C432.013 158.847 432.243 159.037 432.269 159.297C432.294 159.558 432.103 159.788 431.843 159.814L424.515 160.523Z" fill="#002D6F"/>
<path fill-rule="evenodd" clip-rule="evenodd" d="M444.664 155.209C447.092 152.782 449.426 152.595 451.666 154.649C455.028 157.731 451.223 163.49 447.213 163.404C444.54 163.347 443.691 160.616 444.664 155.209Z" fill="#FF9C99"/>
<path fill-rule="evenodd" clip-rule="evenodd" d="M296.543 274.737L292.616 284.273C291.863 286.105 290.171 287.379 288.202 287.597C287.943 287.626 287.682 287.61 287.429 287.55C286.215 287.26 285.467 286.042 285.757 284.829L292.576 256.273L293.633 255.816C298.893 253.541 304.749 253.034 310.321 254.372C321.863 257.142 328.398 260.376 329.929 264.074C331.721 268.404 335.28 279.168 340.607 296.366C341.095 297.942 340.213 299.616 338.637 300.104C338.611 300.112 338.585 300.12 338.558 300.127C336.886 300.596 335.133 299.708 334.52 298.083L326.507 276.839C325.916 275.272 324.168 274.48 322.6 275.068C320.994 275.67 320.113 277.399 320.57 279.052L325.527 297C326.092 299.044 324.892 301.158 322.848 301.723C322.766 301.745 322.683 301.765 322.6 301.782C320.34 302.247 318.107 300.878 317.498 298.652L312.583 280.687C312.14 279.065 310.466 278.111 308.844 278.554C308.78 278.572 308.715 278.592 308.652 278.614C306.898 279.221 305.875 281.043 306.268 282.856L310.26 301.255C310.564 302.653 309.676 304.033 308.277 304.337C308.012 304.394 307.74 304.41 307.47 304.383C305.342 304.17 303.576 302.646 303.053 300.572L296.543 274.737ZM539.466 316.673C543.452 315.794 547.612 316.872 550.672 319.573L556.09 324.36L550.889 336.89L539.522 365.436C538.775 367.322 536.676 368.285 534.756 367.623C534.714 367.609 534.671 367.593 534.629 367.577C532.832 366.88 531.943 364.858 532.638 363.061L539.82 344.577C539.858 344.472 539.891 344.364 539.92 344.254C540.199 343.015 539.423 341.781 538.184 341.5C538.17 341.497 538.161 341.494 538.147 341.492C536.728 341.189 535.328 342.096 535.026 343.517L530.936 362.74C530.922 362.791 530.912 362.841 530.898 362.891C530.397 364.83 528.42 365.996 526.482 365.496C524.416 364.963 523.115 362.925 523.498 360.827L527.049 341.385C527.295 340.052 526.463 338.759 525.149 338.426C525.04 338.398 524.926 338.38 524.818 338.371C523.697 338.279 522.713 339.113 522.619 340.234L521.049 359.456C521.044 359.493 521.04 359.53 521.035 359.567C520.784 361.921 518.671 363.622 516.316 363.368C513.881 363.105 512.113 360.936 512.34 358.499C513.914 341.688 515.574 331.175 517.319 326.96C518.954 322.998 526.34 319.569 539.466 316.673Z" fill="#FF9C99"/>
<path fill-rule="evenodd" clip-rule="evenodd" d="M423.524 456.042L372.459 489.611L335.578 386.3L423.524 456.042ZM552.842 478.027L477.19 473.535L462.532 348.947L503.195 358.403L552.842 478.027Z" fill="#FF567B"/>
<path d="M451.458 248.656C451.356 248.415 451.468 248.138 451.709 248.036C451.949 247.934 452.226 248.046 452.329 248.286C456.543 258.216 462.224 263.129 469.388 263.129C469.649 263.129 469.861 263.341 469.861 263.602C469.861 263.863 469.649 264.074 469.388 264.074C461.788 264.074 455.807 258.901 451.458 248.656ZM443.822 282.088C444.058 282.201 444.158 282.482 444.046 282.718C443.933 282.954 443.651 283.054 443.415 282.942L433.013 277.977C432.778 277.864 432.677 277.582 432.79 277.346C432.902 277.111 433.185 277.011 433.42 277.123L443.822 282.088ZM414.311 203.871C414.266 203.614 414.437 203.369 414.694 203.323C414.952 203.278 415.197 203.45 415.242 203.707L416.66 211.745C416.706 212.002 416.534 212.247 416.277 212.293C416.02 212.338 415.775 212.167 415.729 211.909L414.311 203.871Z" fill="#002D6F"/>
<path d="M317.611 288.425C320.353 288.425 322.576 286.202 322.576 283.46C322.576 280.718 320.353 278.496 317.611 278.496C314.869 278.496 312.646 280.718 312.646 283.46C312.646 286.202 314.869 288.425 317.611 288.425Z" fill="#FFE694"/>
<path fill-rule="evenodd" clip-rule="evenodd" d="M262.709 363.922L268.988 367.581L274.347 363.604L273.086 369.968L277.184 371.717L273.717 374.104L275.135 380.149L269.776 376.649L265.836 380.626L265.048 375.058C261.79 373.573 260.162 372.831 260.162 372.831C260.162 372.831 261.79 371.876 265.048 369.968L262.709 363.922ZM569.037 387.713L578.408 383.969L578.64 374.704L584.526 381.525L589.945 378.536L589.59 384.372L597.42 387.988L589.009 390.86L589.992 398.574L583.221 394.675C578.815 396.971 576.607 398.118 576.607 398.118C576.607 398.118 576.956 395.52 577.652 390.322L569.037 387.713ZM415.287 368.333L424.706 373.77L432.744 367.86L430.852 377.316L436.999 379.917L431.798 383.463L433.926 392.447L425.888 387.246L419.977 393.156L418.795 384.881C413.91 382.675 411.466 381.572 411.466 381.572C411.466 381.572 413.91 380.153 418.795 377.316L415.287 368.333ZM378.149 253.29L384.603 257.051L390.11 252.963L388.815 259.503L393.026 261.301L389.463 263.754L390.92 269.967L385.413 266.37L381.363 270.458L380.553 264.735C377.205 263.209 375.532 262.446 375.532 262.446C375.532 262.446 377.205 261.465 380.553 259.503L378.149 253.29Z" fill="#6383FA"/>
</svg>
