<svg width="123" height="119" viewBox="0 0 123 119" fill="none" xmlns="http://www.w3.org/2000/svg">
<g clip-path="url(#clip0_42_10)">
<path d="M29.82 7.46C29.4831 7.45469 29.1485 7.51647 28.8357 7.64174C28.5229 7.76701 28.2381 7.95327 27.998 8.18966C27.7579 8.42605 27.5672 8.70785 27.4371 9.01866C27.307 9.32946 27.24 9.66305 27.24 10V15.76L19.79 23.21V6.88C19.7879 5.05146 20.5107 3.29665 21.8 2C23.1012 0.725022 24.8483 0.00755793 26.67 0L116 0C117.822 0.00755793 119.569 0.725022 120.87 2C122.133 3.30512 122.848 5.04402 122.87 6.86V80.24C122.87 82.07 122.42 84.18 120.87 85.11C119.576 86.3898 117.83 87.1084 116.01 87.11H61.68C61.3503 85.347 60.8063 83.6309 60.06 82L62.46 79.61H112.91C113.578 79.6047 114.218 79.3362 114.69 78.8626C115.161 78.389 115.427 77.7485 115.43 77.08V10C115.43 9.32635 115.162 8.68029 114.686 8.20395C114.21 7.72761 113.564 7.46 112.89 7.46H99.09V33.89L84.51 26.6L70 33.89V7.46H29.82ZM9.34 77.7L6.16 95.7C6.11596 95.9353 6.01272 96.1556 5.86 96.34C5.04242 97.2715 4.48682 98.4034 4.25 99.62C4.15899 99.9401 4.15748 100.279 4.24564 100.6C4.33379 100.921 4.50824 101.211 4.75 101.44L16.28 113C17.0461 113.75 18.0229 114.249 19.08 114.43C20.2973 114.804 21.5929 114.842 22.83 114.54H22.92L25.09 114C28.42 113.19 31.32 112.47 34.02 110L37.48 106.39C37.5211 106.329 37.568 106.272 37.62 106.22C37.67 106.22 38.01 105.83 38.47 105.4C40.83 103.08 43.77 100.22 41.98 97.72L40.59 96.33C39.92 96.98 39.21 97.61 38.53 98.23C37.85 98.85 37.32 99.29 36.78 99.83C36.5055 100.105 36.1332 100.259 35.745 100.259C35.3568 100.259 34.9845 100.105 34.71 99.83C34.4355 99.5555 34.2813 99.1832 34.2813 98.795C34.2813 98.4068 34.4355 98.0345 34.71 97.76C35.24 97.22 35.91 96.63 36.59 96.02C38.94 93.96 41.59 91.59 40.18 89.52L38.81 88.15L38.61 87.9C37.82 88.71 36.95 89.48 36.1 90.23C35.48 90.78 34.9 91.29 34.36 91.83C34.0847 92.103 33.7127 92.2561 33.325 92.2561C32.9373 92.2561 32.5653 92.103 32.29 91.83C32.1524 91.695 32.0431 91.534 31.9685 91.3562C31.8939 91.1785 31.8555 90.9877 31.8555 90.795C31.8555 90.6023 31.8939 90.4115 31.9685 90.2337C32.0431 90.056 32.1524 89.895 32.29 89.76C32.82 89.22 33.49 88.63 34.17 88.03C36.52 85.96 39.17 83.59 37.76 81.52L36.39 80.15C36.2982 80.0527 36.2177 79.9453 36.15 79.83L32.15 83.83C31.8755 84.1045 31.5032 84.2587 31.115 84.2587C30.7268 84.2587 30.3545 84.1045 30.08 83.83C29.8055 83.5555 29.6513 83.1832 29.6513 82.795C29.6513 82.4068 29.8055 82.0345 30.08 81.76L37.63 74.21C39.44 72.4 39.85 70.52 39.38 69.09C39.21 68.57 39.38 68.56 39 68.19C38.8104 68.002 38.5989 67.8375 38.37 67.7C38.26 67.7 38.18 67.64 38.07 67.53C37.941 67.4664 37.8073 67.4129 37.67 67.37C36.42 66.95 35.23 67.69 33.59 69.08L33.52 69.14C33.34 69.29 33.16 69.45 32.98 69.63L17.27 85.34C16.9947 85.613 16.6227 85.7661 16.235 85.7661C15.8473 85.7661 15.4753 85.613 15.2 85.34C14.9485 85.093 14.7956 84.7629 14.7698 84.4114C14.744 84.0599 14.8472 83.711 15.06 83.43L9.34 77.7ZM18.8 78.78L19.31 78.28L29.64 67.94C27.6807 67.0582 26.0544 65.5735 24.9984 63.7024C23.9423 61.8312 23.5118 59.6716 23.7696 57.5386C24.0274 55.4055 24.96 53.4107 26.4314 51.845C27.9028 50.2793 29.8359 49.2247 31.9489 48.8351C34.0618 48.4455 36.244 48.7412 38.177 49.6791C40.1101 50.617 41.6928 52.1481 42.6945 54.0489C43.6961 55.9497 44.0641 58.1208 43.7449 60.2456C43.4257 62.3703 42.4359 64.3374 40.92 65.86L40.82 65.96C40.9015 66.0281 40.9783 66.1016 41.05 66.18C41.3684 66.4818 41.6534 66.8171 41.9 67.18L54.72 54.41C53.7777 53.4587 53.2491 52.1739 53.2491 50.835C53.2491 49.4961 53.7777 48.2113 54.72 47.26L45.17 37.71C44.223 38.6565 42.9389 39.1882 41.6 39.1882C40.2611 39.1882 38.977 38.6565 38.03 37.71L11.46 64.28C12.4023 65.2313 12.9309 66.5161 12.9309 67.855C12.9309 69.1939 12.4023 70.4787 11.46 71.43L18.8 78.78ZM41.34 75.38C40.9765 75.8888 40.5682 76.364 40.12 76.8L38.63 78.3C38.7459 78.3669 38.8533 78.4475 38.95 78.54L40.38 79.98C40.4578 80.0601 40.5281 80.1471 40.59 80.24C41.2881 81.0718 41.692 82.1109 41.7391 83.1958C41.7861 84.2808 41.4735 85.3509 40.85 86.24C41.0493 86.3134 41.2302 86.4295 41.38 86.58L42.81 88.01C42.8885 88.0931 42.9588 88.1835 43.02 88.28C43.7554 89.1747 44.1574 90.2969 44.1574 91.455C44.1574 92.6131 43.7554 93.7353 43.02 94.63C43.0848 94.674 43.1451 94.7242 43.2 94.78L44.63 96.21C44.7055 96.2956 44.7756 96.3858 44.84 96.48C48.17 101.03 44.2 104.89 41.01 108.01L40.19 108.83L36.64 112.56L36.52 112.67C33.27 115.67 30.04 116.41 26.31 117.32L24.18 117.85H24.12C22.3405 118.38 20.4665 118.513 18.63 118.24C16.9838 117.96 15.4644 117.177 14.28 116L1.89 103.55C1.28827 102.992 0.846713 102.284 0.611097 101.498C0.37548 100.712 0.354386 99.8769 0.55 99.08C1.00175 97.3516 1.83941 95.7481 3 94.39L6.26 75.62V75.54C6.26 75.31 6.34 75.05 6.39 74.76L0 68.38L42.16 26.22L66.33 50.39L41.33 75.39L41.34 75.38Z" fill="#5277F7"/>
</g>
<defs>
<clipPath id="clip0_42_10">
<rect width="122.88" height="118.34" fill="white"/>
</clipPath>
</defs>
</svg>
