<svg width="720" height="1024" viewBox="0 0 720 1024" fill="none" xmlns="http://www.w3.org/2000/svg">
<g clip-path="url(#clip0_1_40)">
<rect width="720" height="1024" fill="#6383FA"/>
<circle cx="504" cy="1024" r="90" fill="url(#paint0_linear_1_40)"/>
<circle cx="397.777" cy="131.587" r="22.5" transform="rotate(-95.8775 397.777 131.587)" fill="white"/>
<circle cx="136.486" cy="150.486" r="5" transform="rotate(-95.8775 136.486 150.486)" fill="white"/>
<circle cx="136.486" cy="177.486" r="5" transform="rotate(-95.8775 136.486 177.486)" fill="white"/>
<circle cx="136.486" cy="205.486" r="5" transform="rotate(-95.8775 136.486 205.486)" fill="white"/>
<circle cx="136.486" cy="234.486" r="5" transform="rotate(-95.8775 136.486 234.486)" fill="white"/>
<circle cx="102.486" cy="149.486" r="5" transform="rotate(-95.8775 102.486 149.486)" fill="white"/>
<circle cx="102.486" cy="176.486" r="5" transform="rotate(-95.8775 102.486 176.486)" fill="white"/>
<circle cx="102.486" cy="204.486" r="5" transform="rotate(-95.8775 102.486 204.486)" fill="white"/>
<circle cx="102.486" cy="233.486" r="5" transform="rotate(-95.8775 102.486 233.486)" fill="white"/>
<circle cx="68.4858" cy="149.486" r="5" transform="rotate(-95.8775 68.4858 149.486)" fill="white"/>
<circle cx="68.4858" cy="176.486" r="5" transform="rotate(-95.8775 68.4858 176.486)" fill="white"/>
<circle cx="68.4858" cy="204.486" r="5" transform="rotate(-95.8775 68.4858 204.486)" fill="white"/>
<circle cx="68.4858" cy="233.486" r="5" transform="rotate(-95.8775 68.4858 233.486)" fill="white"/>
<circle cx="170.486" cy="149.486" r="5" transform="rotate(-95.8775 170.486 149.486)" fill="white"/>
<circle cx="170.486" cy="176.486" r="5" transform="rotate(-95.8775 170.486 176.486)" fill="white"/>
<circle cx="170.486" cy="204.486" r="5" transform="rotate(-95.8775 170.486 204.486)" fill="white"/>
<circle cx="170.486" cy="233.486" r="5" transform="rotate(-95.8775 170.486 233.486)" fill="white"/>
<circle cx="204.486" cy="149.486" r="5" transform="rotate(-95.8775 204.486 149.486)" fill="white"/>
<circle cx="204.486" cy="176.486" r="5" transform="rotate(-95.8775 204.486 176.486)" fill="white"/>
<circle cx="204.486" cy="204.486" r="5" transform="rotate(-95.8775 204.486 204.486)" fill="white"/>
<circle cx="204.486" cy="233.486" r="5" transform="rotate(-95.8775 204.486 233.486)" fill="white"/>
<path d="M505.438 890.222C479.661 889.997 454.322 896.893 432.214 910.151C410.106 923.409 392.088 942.514 380.146 965.359C368.204 988.204 362.801 1013.9 364.533 1039.62C366.265 1065.34 375.065 1090.09 389.962 1111.12C404.86 1132.16 425.277 1148.68 448.962 1158.85C472.648 1169.03 498.683 1172.46 524.198 1168.78C549.712 1165.1 573.715 1154.45 593.562 1138C613.408 1121.55 628.327 1099.94 636.674 1075.55L630.574 1073.46C622.611 1096.73 608.38 1117.34 589.447 1133.04C570.515 1148.73 547.617 1158.89 523.277 1162.4C498.938 1165.91 474.102 1162.63 451.507 1152.93C428.912 1143.22 409.435 1127.47 395.224 1107.4C381.012 1087.33 372.618 1063.73 370.966 1039.19C369.313 1014.65 374.467 990.139 385.86 968.346C397.252 946.553 414.44 928.328 435.53 915.681C456.619 903.033 480.792 896.454 505.382 896.669L505.438 890.222Z" fill="white"/>
<path d="M344.92 136.109C345.826 145.734 349.372 154.921 355.166 162.659C360.961 170.396 368.779 176.384 377.76 179.961C386.74 183.539 396.534 184.568 406.062 182.934C415.59 181.3 424.482 177.067 431.757 170.702C439.033 164.337 444.41 156.087 447.295 146.861C450.181 137.635 450.463 127.791 448.111 118.414C445.759 109.038 440.864 100.493 433.965 93.7217C427.066 86.9501 418.431 82.2149 409.013 80.0378L408.468 82.3934C417.453 84.4702 425.69 88.9875 432.271 95.4472C438.852 101.907 443.522 110.058 445.766 119.003C448.01 127.947 447.741 137.338 444.988 146.139C442.235 154.94 437.106 162.811 430.165 168.883C423.225 174.955 414.742 178.992 405.653 180.551C396.564 182.109 387.221 181.128 378.655 177.715C370.088 174.303 362.629 168.591 357.102 161.209C351.574 153.828 348.191 145.064 347.327 135.883L344.92 136.109Z" fill="white"/>
<path d="M648.278 1116.23C666.1 1086.29 675.734 1052.26 676.119 1017.9C676.503 983.532 667.624 950.167 650.458 921.479C633.293 892.791 608.508 869.893 578.836 855.31C549.164 840.726 515.757 835.023 482.297 838.829C448.837 842.635 416.623 855.802 389.206 876.88C361.789 897.957 340.234 926.126 326.916 958.281C313.598 990.437 309.035 1025.33 313.729 1059.12C318.424 1092.9 332.193 1124.27 353.52 1149.76L359.028 1144.84C338.537 1120.35 325.307 1090.22 320.797 1057.76C316.286 1025.29 320.671 991.769 333.467 960.874C346.262 929.979 366.973 902.914 393.315 882.663C419.657 862.412 450.608 849.76 482.757 846.104C514.905 842.447 547.003 847.926 575.512 861.938C604.021 875.95 627.834 897.95 644.327 925.514C660.819 953.078 669.351 985.134 668.982 1018.15C668.612 1051.17 659.355 1083.86 642.232 1112.63L648.278 1116.23Z" fill="white"/>
<circle cx="594" cy="870" r="31" fill="url(#paint1_linear_1_40)"/>
<circle cx="155" cy="770" r="37" fill="url(#paint2_linear_1_40)"/>
<circle cx="520" cy="73" r="16" fill="url(#paint3_linear_1_40)"/>
<circle cx="79" cy="913" r="3" fill="white"/>
<circle cx="79" cy="926" r="3" fill="white"/>
<circle cx="79" cy="940" r="3" fill="white"/>
<circle cx="93" cy="913" r="3" fill="white"/>
<circle cx="93" cy="926" r="3" fill="white"/>
<circle cx="93" cy="940" r="3" fill="white"/>
<circle cx="107" cy="913" r="3" fill="white"/>
<circle cx="107" cy="926" r="3" fill="white"/>
<circle cx="107" cy="940" r="3" fill="white"/>
<circle cx="121" cy="913" r="3" fill="white"/>
<circle cx="121" cy="926" r="3" fill="white"/>
<circle cx="121" cy="940" r="3" fill="white"/>
<circle cx="141" cy="-4" r="78" fill="white"/>
</g>
<defs>
<linearGradient id="paint0_linear_1_40" x1="437" y1="963" x2="674" y2="1046" gradientUnits="userSpaceOnUse">
<stop stop-color="#15C8FE"/>
<stop offset="1" stop-color="#EEEEEE"/>
</linearGradient>
<linearGradient id="paint1_linear_1_40" x1="570.922" y1="848.989" x2="652.556" y2="877.578" gradientUnits="userSpaceOnUse">
<stop stop-color="#15C8FE"/>
<stop offset="1" stop-color="#EEEEEE"/>
</linearGradient>
<linearGradient id="paint2_linear_1_40" x1="127.456" y1="744.922" x2="224.889" y2="779.044" gradientUnits="userSpaceOnUse">
<stop stop-color="#15C8FE"/>
<stop offset="1" stop-color="#EEEEEE"/>
</linearGradient>
<linearGradient id="paint3_linear_1_40" x1="508.089" y1="62.1556" x2="550.222" y2="76.9111" gradientUnits="userSpaceOnUse">
<stop stop-color="#15C8FE"/>
<stop offset="1" stop-color="#EEEEEE"/>
</linearGradient>
<clipPath id="clip0_1_40">
<rect width="720" height="1024" fill="white"/>
</clipPath>
</defs>
</svg>
