<svg width="1440" height="1024" viewBox="0 0 1440 1024" fill="none" xmlns="http://www.w3.org/2000/svg">
<g clip-path="url(#clip0_25_14)">
<rect width="1440" height="1024" fill="#6383FA"/>
<circle cx="301.789" cy="228.271" r="290" transform="rotate(-132.282 301.789 228.271)" fill="#9AB6F8"/>
<circle cx="306.224" cy="222.526" r="290" transform="rotate(-132.282 306.224 222.526)" fill="#6383FA"/>
<circle cx="324.314" cy="453.643" r="290" transform="rotate(-114.661 324.314 453.643)" fill="#9FBBFC"/>
<circle cx="330.484" cy="448.51" r="290" transform="rotate(-114.661 330.484 448.51)" fill="#6383FA"/>
<circle cx="315.402" cy="-3.07889" r="90" transform="rotate(-160 315.402 -3.07889)" fill="url(#paint0_linear_25_14)"/>
<path d="M268.295 122.14C292.441 131.167 318.611 133.353 343.92 128.456C369.229 123.559 392.694 111.769 411.73 94.3864C430.766 77.0033 444.632 54.7021 451.801 29.9406C458.971 5.17922 459.164 -21.0809 452.36 -45.9452C445.556 -70.8095 432.02 -93.3125 413.242 -110.974C394.464 -128.635 371.175 -140.769 345.941 -146.039C320.707 -151.308 294.508 -149.507 270.232 -140.836C245.955 -132.165 224.545 -116.959 208.359 -96.8955L211.45 -94.4026C227.176 -113.897 247.979 -128.672 271.567 -137.097C295.155 -145.522 320.611 -147.272 345.129 -142.152C369.648 -137.032 392.277 -125.242 410.522 -108.082C428.767 -90.9212 441.92 -69.0563 448.53 -44.8972C455.141 -20.7381 454.953 4.77725 447.988 28.8364C441.022 52.8956 427.548 74.5644 409.053 91.4544C390.557 108.344 367.757 119.8 343.166 124.558C318.574 129.316 293.147 127.192 269.686 118.421L268.295 122.14Z" fill="white"/>
<path d="M212.749 -137.401C211.987 -138.334 210.61 -138.474 209.685 -137.701C183.52 -115.85 163.436 -87.6978 151.575 -56.2103C139.461 -24.0508 136.393 10.3387 142.712 43.1677C149.03 75.9967 164.489 105.99 187.383 129.843C210.278 153.695 239.72 170.48 272.464 178.348C305.208 186.216 339.982 184.86 372.955 174.431C405.927 164.002 435.816 144.904 459.329 119.243C482.841 93.5813 499.064 62.3527 506.208 28.999C513.183 -3.56427 511.24 -36.9187 500.607 -67.5579C500.183 -68.7789 498.824 -69.3883 497.623 -68.9098V-68.9098C496.475 -68.4522 495.899 -67.1662 496.305 -65.9989C506.705 -36.0822 508.61 -3.50841 501.799 28.2921C494.828 60.8346 479 91.3037 456.06 116.341C433.119 141.378 403.956 160.011 371.786 170.187C339.616 180.362 305.687 181.685 273.739 174.009C241.792 166.332 213.066 149.956 190.728 126.683C168.39 103.411 153.308 74.1467 147.143 42.1162C140.979 10.0857 143.971 -23.4674 155.791 -54.8447C167.358 -85.5501 186.938 -113.005 212.447 -134.319C213.372 -135.092 213.512 -136.467 212.749 -137.401V-137.401Z" fill="white"/>
<circle cx="178.158" cy="110.852" r="31" transform="rotate(-160 178.158 110.852)" fill="url(#paint1_linear_25_14)"/>
<path d="M527.5 648L530.842 659.711L542.655 656.75L534.184 665.5L542.655 674.25L530.842 671.289L527.5 683L524.158 671.289L512.345 674.25L520.816 665.5L512.345 656.75L524.158 659.711L527.5 648Z" fill="white"/>
<path d="M553.5 16L556.842 27.7111L568.655 24.75L560.184 33.5L568.655 42.25L556.842 39.2889L553.5 51L550.158 39.2889L538.345 42.25L546.816 33.5L538.345 24.75L550.158 27.7111L553.5 16Z" fill="white"/>
<path d="M154.5 204L157.842 215.711L169.655 212.75L161.184 221.5L169.655 230.25L157.842 227.289L154.5 239L151.158 227.289L139.345 230.25L147.816 221.5L139.345 212.75L151.158 215.711L154.5 204Z" fill="white"/>
<path d="M392.5 176L395.842 187.711L407.655 184.75L399.184 193.5L407.655 202.25L395.842 199.289L392.5 211L389.158 199.289L377.345 202.25L385.816 193.5L377.345 184.75L389.158 187.711L392.5 176Z" fill="white"/>
</g>
<defs>
<linearGradient id="paint0_linear_25_14" x1="248.402" y1="-64.0789" x2="485.402" y2="18.9211" gradientUnits="userSpaceOnUse">
<stop stop-color="#749AF0"/>
<stop offset="1" stop-color="#EEEEEE"/>
</linearGradient>
<linearGradient id="paint1_linear_25_14" x1="155.08" y1="89.8408" x2="236.714" y2="118.43" gradientUnits="userSpaceOnUse">
<stop stop-color="#749AF0"/>
<stop offset="1" stop-color="#EEEEEE"/>
</linearGradient>
<clipPath id="clip0_25_14">
<rect width="1440" height="1024" fill="white"/>
</clipPath>
</defs>
</svg>
