<svg width="98" height="83" viewBox="0 0 98 83" fill="none" xmlns="http://www.w3.org/2000/svg">
<path fill-rule="evenodd" clip-rule="evenodd" d="M86.062 46.279L81.868 50.472C81.103 51.237 79.862 51.237 79.097 50.472C78.333 49.708 78.333 48.466 79.097 47.701L86.877 39.922C87.642 39.157 88.882 39.157 89.647 39.922L97.427 47.701C98.191 48.466 98.191 49.708 97.427 50.472C96.662 51.237 95.42 51.237 94.656 50.472L90.058 45.874C87.782 66.527 70.255 82.615 49 82.615C30.495 82.615 14.815 70.42 9.566 53.636C9.387 53.043 9.499 52.399 9.869 51.901C10.239 51.403 10.822 51.11 11.442 51.11L11.443 51.103C12.305 51.103 13.066 51.666 13.318 52.491C18.073 67.67 32.259 78.697 49 78.697C67.951 78.696 83.628 64.568 86.062 46.279ZM26.253 27.057L33.106 18.907C33.851 18.021 34.948 17.51 36.105 17.51H68.759C70.923 17.51 72.677 19.264 72.677 21.428V54.082C72.677 55.194 72.204 56.255 71.376 56.998L63.673 63.91C63.673 63.91 62.971 64.526 62.55 64.714C61.623 65.129 60.848 65.107 60.838 65.107H29.241C27.077 65.107 25.323 63.353 25.323 61.189L25.328 29.402C25.37 28.509 25.711 27.695 26.253 27.057ZM36.151 29.592H29.241V61.189H60.838V29.592H53.928V47.161C53.928 48.667 53.065 50.04 51.707 50.692C50.35 51.345 48.738 51.161 47.562 50.221L45.04 48.203L42.518 50.221C41.342 51.161 39.73 51.345 38.373 50.692C37.015 50.04 36.151 48.667 36.151 47.161V29.592ZM68.759 24.242L64.733 28.391L64.757 57.672L68.759 54.082V24.242ZM50.01 29.592H40.07V47.161L45.04 43.185L50.01 47.161V29.592ZM7.942 36.742C10.219 16.087 27.746 0 49 0C67.505 0 83.185 12.195 88.434 28.979C88.613 29.572 88.501 30.216 88.131 30.714C87.761 31.212 87.178 31.505 86.558 31.505L86.557 31.512C85.695 31.512 84.934 30.949 84.682 30.124C79.927 14.945 65.741 3.919 49 3.919C30.048 3.919 14.371 18.049 11.938 36.338L16.132 32.144C16.897 31.379 18.138 31.379 18.903 32.144C19.667 32.909 19.667 34.15 18.903 34.915L11.123 42.694C10.358 43.459 9.118 43.459 8.353 42.694L0.573 34.915C-0.191 34.15 -0.191 32.909 0.573 32.144C1.338 31.379 2.58 31.379 3.344 32.144L7.942 36.742ZM36.105 21.428L32.536 25.673L61.941 25.641L66.029 21.428H36.105Z" fill="#5277F7"/>
</svg>
